<svg xmlns="http://www.w3.org/2000/svg" xmlns:xlink="http://www.w3.org/1999/xlink" width="600" height="400" viewBox="0 0 2400 1600">
<defs>
  <clipPath id="clip330">
    <rect x="0" y="0" width="2400" height="1600"></rect>
  </clipPath>
</defs>
<path clip-path="url(#clip330)" d="M0 1600 L2400 1600 L2400 0 L0 0  Z" fill="#ffffff" fill-rule="evenodd" fill-opacity="1"></path>
<defs>
  <clipPath id="clip331">
    <rect x="480" y="0" width="1681" height="1600"></rect>
  </clipPath>
</defs>
<path clip-path="url(#clip330)" d="M140.696 1486.45 L2352.76 1486.45 L2352.76 123.472 L140.696 123.472  Z" fill="#ffffff" fill-rule="evenodd" fill-opacity="1"></path>
<defs>
  <clipPath id="clip332">
    <rect x="140" y="123" width="2213" height="1364"></rect>
  </clipPath>
</defs>
<polyline clip-path="url(#clip332)" style="stroke:#000000; stroke-linecap:round; stroke-linejoin:round; stroke-width:2; stroke-opacity:0.1; fill:none" points="378.17,1486.45 378.17,123.472 "></polyline>
<polyline clip-path="url(#clip332)" style="stroke:#000000; stroke-linecap:round; stroke-linejoin:round; stroke-width:2; stroke-opacity:0.1; fill:none" points="667.689,1486.45 667.689,123.472 "></polyline>
<polyline clip-path="url(#clip332)" style="stroke:#000000; stroke-linecap:round; stroke-linejoin:round; stroke-width:2; stroke-opacity:0.1; fill:none" points="957.207,1486.45 957.207,123.472 "></polyline>
<polyline clip-path="url(#clip332)" style="stroke:#000000; stroke-linecap:round; stroke-linejoin:round; stroke-width:2; stroke-opacity:0.1; fill:none" points="1246.73,1486.45 1246.73,123.472 "></polyline>
<polyline clip-path="url(#clip332)" style="stroke:#000000; stroke-linecap:round; stroke-linejoin:round; stroke-width:2; stroke-opacity:0.1; fill:none" points="1536.24,1486.45 1536.24,123.472 "></polyline>
<polyline clip-path="url(#clip332)" style="stroke:#000000; stroke-linecap:round; stroke-linejoin:round; stroke-width:2; stroke-opacity:0.1; fill:none" points="1825.76,1486.45 1825.76,123.472 "></polyline>
<polyline clip-path="url(#clip332)" style="stroke:#000000; stroke-linecap:round; stroke-linejoin:round; stroke-width:2; stroke-opacity:0.1; fill:none" points="2115.28,1486.45 2115.28,123.472 "></polyline>
<polyline clip-path="url(#clip330)" style="stroke:#000000; stroke-linecap:round; stroke-linejoin:round; stroke-width:4; stroke-opacity:1; fill:none" points="140.696,1486.45 2352.76,1486.45 "></polyline>
<polyline clip-path="url(#clip330)" style="stroke:#000000; stroke-linecap:round; stroke-linejoin:round; stroke-width:4; stroke-opacity:1; fill:none" points="378.17,1486.45 378.17,1467.55 "></polyline>
<polyline clip-path="url(#clip330)" style="stroke:#000000; stroke-linecap:round; stroke-linejoin:round; stroke-width:4; stroke-opacity:1; fill:none" points="667.689,1486.45 667.689,1467.55 "></polyline>
<polyline clip-path="url(#clip330)" style="stroke:#000000; stroke-linecap:round; stroke-linejoin:round; stroke-width:4; stroke-opacity:1; fill:none" points="957.207,1486.45 957.207,1467.55 "></polyline>
<polyline clip-path="url(#clip330)" style="stroke:#000000; stroke-linecap:round; stroke-linejoin:round; stroke-width:4; stroke-opacity:1; fill:none" points="1246.73,1486.45 1246.73,1467.55 "></polyline>
<polyline clip-path="url(#clip330)" style="stroke:#000000; stroke-linecap:round; stroke-linejoin:round; stroke-width:4; stroke-opacity:1; fill:none" points="1536.24,1486.45 1536.24,1467.55 "></polyline>
<polyline clip-path="url(#clip330)" style="stroke:#000000; stroke-linecap:round; stroke-linejoin:round; stroke-width:4; stroke-opacity:1; fill:none" points="1825.76,1486.45 1825.76,1467.55 "></polyline>
<polyline clip-path="url(#clip330)" style="stroke:#000000; stroke-linecap:round; stroke-linejoin:round; stroke-width:4; stroke-opacity:1; fill:none" points="2115.28,1486.45 2115.28,1467.55 "></polyline>
<path clip-path="url(#clip330)" d="M286.666 1532.34 L286.666 1545.01 L294.166 1545.01 Q297.939 1545.01 299.745 1543.45 Q301.573 1541.88 301.573 1538.66 Q301.573 1535.42 299.745 1533.89 Q297.939 1532.34 294.166 1532.34 L286.666 1532.34 M286.666 1518.13 L286.666 1528.55 L293.587 1528.55 Q297.013 1528.55 298.68 1527.27 Q300.37 1525.98 300.37 1523.34 Q300.37 1520.72 298.68 1519.43 Q297.013 1518.13 293.587 1518.13 L286.666 1518.13 M281.99 1514.29 L293.935 1514.29 Q299.282 1514.29 302.175 1516.51 Q305.069 1518.73 305.069 1522.83 Q305.069 1526 303.587 1527.88 Q302.106 1529.75 299.235 1530.21 Q302.684 1530.95 304.583 1533.32 Q306.504 1535.65 306.504 1539.17 Q306.504 1543.8 303.356 1546.32 Q300.208 1548.85 294.398 1548.85 L281.99 1548.85 L281.99 1514.29 Z" fill="#000000" fill-rule="nonzero" fill-opacity="1"></path><path clip-path="url(#clip330)" d="M314.328 1522.92 L318.587 1522.92 L318.587 1548.85 L314.328 1548.85 L314.328 1522.92 M314.328 1512.83 L318.587 1512.83 L318.587 1518.22 L314.328 1518.22 L314.328 1512.83 Z" fill="#000000" fill-rule="nonzero" fill-opacity="1"></path><path clip-path="url(#clip330)" d="M337.545 1525.91 Q334.12 1525.91 332.129 1528.59 Q330.138 1531.26 330.138 1535.91 Q330.138 1540.56 332.106 1543.25 Q334.096 1545.91 337.545 1545.91 Q340.948 1545.91 342.939 1543.22 Q344.93 1540.54 344.93 1535.91 Q344.93 1531.3 342.939 1528.62 Q340.948 1525.91 337.545 1525.91 M337.545 1522.3 Q343.101 1522.3 346.272 1525.91 Q349.444 1529.52 349.444 1535.91 Q349.444 1542.27 346.272 1545.91 Q343.101 1549.52 337.545 1549.52 Q331.967 1549.52 328.795 1545.91 Q325.647 1542.27 325.647 1535.91 Q325.647 1529.52 328.795 1525.91 Q331.967 1522.3 337.545 1522.3 Z" fill="#000000" fill-rule="nonzero" fill-opacity="1"></path><path clip-path="url(#clip330)" d="M376.689 1527.9 Q378.286 1525.03 380.508 1523.66 Q382.73 1522.3 385.74 1522.3 Q389.791 1522.3 391.99 1525.14 Q394.189 1527.97 394.189 1533.2 L394.189 1548.85 L389.906 1548.85 L389.906 1533.34 Q389.906 1529.61 388.587 1527.81 Q387.267 1526 384.559 1526 Q381.249 1526 379.328 1528.2 Q377.406 1530.4 377.406 1534.2 L377.406 1548.85 L373.124 1548.85 L373.124 1533.34 Q373.124 1529.59 371.804 1527.81 Q370.485 1526 367.73 1526 Q364.467 1526 362.545 1528.22 Q360.624 1530.42 360.624 1534.2 L360.624 1548.85 L356.342 1548.85 L356.342 1522.92 L360.624 1522.92 L360.624 1526.95 Q362.082 1524.57 364.119 1523.43 Q366.156 1522.3 368.957 1522.3 Q371.781 1522.3 373.749 1523.73 Q375.74 1525.17 376.689 1527.9 Z" fill="#000000" fill-rule="nonzero" fill-opacity="1"></path><path clip-path="url(#clip330)" d="M414.466 1535.82 Q409.304 1535.82 407.314 1537 Q405.323 1538.18 405.323 1541.02 Q405.323 1543.29 406.804 1544.63 Q408.309 1545.95 410.878 1545.95 Q414.42 1545.95 416.55 1543.45 Q418.702 1540.93 418.702 1536.76 L418.702 1535.82 L414.466 1535.82 M422.962 1534.06 L422.962 1548.85 L418.702 1548.85 L418.702 1544.91 Q417.244 1547.27 415.068 1548.41 Q412.892 1549.52 409.744 1549.52 Q405.763 1549.52 403.402 1547.3 Q401.064 1545.05 401.064 1541.3 Q401.064 1536.93 403.98 1534.7 Q406.92 1532.48 412.73 1532.48 L418.702 1532.48 L418.702 1532.07 Q418.702 1529.13 416.758 1527.53 Q414.837 1525.91 411.341 1525.91 Q409.119 1525.91 407.013 1526.44 Q404.906 1526.97 402.962 1528.04 L402.962 1524.1 Q405.3 1523.2 407.499 1522.76 Q409.698 1522.3 411.781 1522.3 Q417.406 1522.3 420.184 1525.21 Q422.962 1528.13 422.962 1534.06 Z" fill="#000000" fill-rule="nonzero" fill-opacity="1"></path><path clip-path="url(#clip330)" d="M448.262 1523.69 L448.262 1527.71 Q446.457 1526.79 444.512 1526.32 Q442.568 1525.86 440.485 1525.86 Q437.313 1525.86 435.716 1526.83 Q434.142 1527.81 434.142 1529.75 Q434.142 1531.23 435.276 1532.09 Q436.411 1532.92 439.837 1533.69 L441.295 1534.01 Q445.832 1534.98 447.73 1536.76 Q449.651 1538.52 449.651 1541.7 Q449.651 1545.31 446.781 1547.41 Q443.934 1549.52 438.934 1549.52 Q436.85 1549.52 434.582 1549.1 Q432.337 1548.71 429.837 1547.9 L429.837 1543.5 Q432.198 1544.73 434.489 1545.35 Q436.781 1545.95 439.026 1545.95 Q442.036 1545.95 443.656 1544.94 Q445.276 1543.89 445.276 1542.02 Q445.276 1540.28 444.096 1539.36 Q442.938 1538.43 438.98 1537.57 L437.499 1537.23 Q433.54 1536.39 431.781 1534.68 Q430.022 1532.95 430.022 1529.94 Q430.022 1526.28 432.614 1524.29 Q435.207 1522.3 439.975 1522.3 Q442.337 1522.3 444.42 1522.64 Q446.503 1522.99 448.262 1523.69 Z" fill="#000000" fill-rule="nonzero" fill-opacity="1"></path><path clip-path="url(#clip330)" d="M472.961 1523.69 L472.961 1527.71 Q471.156 1526.79 469.211 1526.32 Q467.267 1525.86 465.184 1525.86 Q462.012 1525.86 460.415 1526.83 Q458.841 1527.81 458.841 1529.75 Q458.841 1531.23 459.975 1532.09 Q461.11 1532.92 464.535 1533.69 L465.994 1534.01 Q470.531 1534.98 472.429 1536.76 Q474.35 1538.52 474.35 1541.7 Q474.35 1545.31 471.48 1547.41 Q468.633 1549.52 463.633 1549.52 Q461.549 1549.52 459.281 1549.1 Q457.036 1548.71 454.536 1547.9 L454.536 1543.5 Q456.897 1544.73 459.188 1545.35 Q461.48 1545.95 463.725 1545.95 Q466.735 1545.95 468.355 1544.94 Q469.975 1543.89 469.975 1542.02 Q469.975 1540.28 468.795 1539.36 Q467.637 1538.43 463.679 1537.57 L462.198 1537.23 Q458.239 1536.39 456.48 1534.68 Q454.721 1532.95 454.721 1529.94 Q454.721 1526.28 457.313 1524.29 Q459.906 1522.3 464.674 1522.3 Q467.035 1522.3 469.119 1522.64 Q471.202 1522.99 472.961 1523.69 Z" fill="#000000" fill-rule="nonzero" fill-opacity="1"></path><path clip-path="url(#clip330)" d="M646.948 1516.95 L646.948 1521.88 Q644.587 1519.68 641.902 1518.59 Q639.24 1517.51 636.231 1517.51 Q630.305 1517.51 627.157 1521.14 Q624.008 1524.75 624.008 1531.6 Q624.008 1538.43 627.157 1542.07 Q630.305 1545.68 636.231 1545.68 Q639.24 1545.68 641.902 1544.59 Q644.587 1543.5 646.948 1541.3 L646.948 1546.19 Q644.494 1547.85 641.74 1548.69 Q639.008 1549.52 635.953 1549.52 Q628.106 1549.52 623.592 1544.73 Q619.078 1539.91 619.078 1531.6 Q619.078 1523.27 623.592 1518.48 Q628.106 1513.66 635.953 1513.66 Q639.055 1513.66 641.786 1514.5 Q644.541 1515.31 646.948 1516.95 Z" fill="#000000" fill-rule="nonzero" fill-opacity="1"></path><path clip-path="url(#clip330)" d="M664.031 1525.91 Q660.605 1525.91 658.615 1528.59 Q656.624 1531.26 656.624 1535.91 Q656.624 1540.56 658.592 1543.25 Q660.582 1545.91 664.031 1545.91 Q667.434 1545.91 669.425 1543.22 Q671.416 1540.54 671.416 1535.91 Q671.416 1531.3 669.425 1528.62 Q667.434 1525.91 664.031 1525.91 M664.031 1522.3 Q669.587 1522.3 672.758 1525.91 Q675.929 1529.52 675.929 1535.91 Q675.929 1542.27 672.758 1545.91 Q669.587 1549.52 664.031 1549.52 Q658.453 1549.52 655.281 1545.91 Q652.133 1542.27 652.133 1535.91 Q652.133 1529.52 655.281 1525.91 Q658.453 1522.3 664.031 1522.3 Z" fill="#000000" fill-rule="nonzero" fill-opacity="1"></path><path clip-path="url(#clip330)" d="M694.772 1535.82 Q689.61 1535.82 687.619 1537 Q685.628 1538.18 685.628 1541.02 Q685.628 1543.29 687.11 1544.63 Q688.615 1545.95 691.184 1545.95 Q694.726 1545.95 696.855 1543.45 Q699.008 1540.93 699.008 1536.76 L699.008 1535.82 L694.772 1535.82 M703.267 1534.06 L703.267 1548.85 L699.008 1548.85 L699.008 1544.91 Q697.55 1547.27 695.374 1548.41 Q693.198 1549.52 690.05 1549.52 Q686.068 1549.52 683.707 1547.3 Q681.369 1545.05 681.369 1541.3 Q681.369 1536.93 684.286 1534.7 Q687.226 1532.48 693.036 1532.48 L699.008 1532.48 L699.008 1532.07 Q699.008 1529.13 697.064 1527.53 Q695.142 1525.91 691.647 1525.91 Q689.425 1525.91 687.318 1526.44 Q685.212 1526.97 683.267 1528.04 L683.267 1524.1 Q685.605 1523.2 687.804 1522.76 Q690.003 1522.3 692.087 1522.3 Q697.712 1522.3 700.489 1525.21 Q703.267 1528.13 703.267 1534.06 Z" fill="#000000" fill-rule="nonzero" fill-opacity="1"></path><path clip-path="url(#clip330)" d="M712.04 1512.83 L716.3 1512.83 L716.3 1548.85 L712.04 1548.85 L712.04 1512.83 Z" fill="#000000" fill-rule="nonzero" fill-opacity="1"></path><path clip-path="url(#clip330)" d="M940.008 1543.92 L940.008 1534.63 L932.369 1534.63 L932.369 1530.79 L944.638 1530.79 L944.638 1545.63 Q941.93 1547.55 938.666 1548.55 Q935.402 1549.52 931.698 1549.52 Q923.596 1549.52 919.013 1544.8 Q914.453 1540.05 914.453 1531.6 Q914.453 1523.13 919.013 1518.41 Q923.596 1513.66 931.698 1513.66 Q935.078 1513.66 938.11 1514.5 Q941.166 1515.33 943.735 1516.95 L943.735 1521.93 Q941.142 1519.73 938.226 1518.62 Q935.309 1517.51 932.092 1517.51 Q925.749 1517.51 922.555 1521.05 Q919.383 1524.59 919.383 1531.6 Q919.383 1538.59 922.555 1542.13 Q925.749 1545.68 932.092 1545.68 Q934.568 1545.68 936.513 1545.26 Q938.457 1544.82 940.008 1543.92 Z" fill="#000000" fill-rule="nonzero" fill-opacity="1"></path><path clip-path="url(#clip330)" d="M964.777 1535.82 Q959.615 1535.82 957.624 1537 Q955.633 1538.18 955.633 1541.02 Q955.633 1543.29 957.115 1544.63 Q958.619 1545.95 961.189 1545.95 Q964.73 1545.95 966.86 1543.45 Q969.013 1540.93 969.013 1536.76 L969.013 1535.82 L964.777 1535.82 M973.272 1534.06 L973.272 1548.85 L969.013 1548.85 L969.013 1544.91 Q967.554 1547.27 965.378 1548.41 Q963.203 1549.52 960.054 1549.52 Q956.073 1549.52 953.712 1547.3 Q951.374 1545.05 951.374 1541.3 Q951.374 1536.93 954.291 1534.7 Q957.23 1532.48 963.041 1532.48 L969.013 1532.48 L969.013 1532.07 Q969.013 1529.13 967.068 1527.53 Q965.147 1525.91 961.652 1525.91 Q959.429 1525.91 957.323 1526.44 Q955.216 1526.97 953.272 1528.04 L953.272 1524.1 Q955.61 1523.2 957.809 1522.76 Q960.008 1522.3 962.091 1522.3 Q967.716 1522.3 970.494 1525.21 Q973.272 1528.13 973.272 1534.06 Z" fill="#000000" fill-rule="nonzero" fill-opacity="1"></path><path clip-path="url(#clip330)" d="M998.573 1523.69 L998.573 1527.71 Q996.767 1526.79 994.823 1526.32 Q992.878 1525.86 990.795 1525.86 Q987.624 1525.86 986.027 1526.83 Q984.452 1527.81 984.452 1529.75 Q984.452 1531.23 985.587 1532.09 Q986.721 1532.92 990.147 1533.69 L991.605 1534.01 Q996.142 1534.98 998.04 1536.76 Q999.962 1538.52 999.962 1541.7 Q999.962 1545.31 997.091 1547.41 Q994.244 1549.52 989.244 1549.52 Q987.161 1549.52 984.892 1549.1 Q982.647 1548.71 980.147 1547.9 L980.147 1543.5 Q982.508 1544.73 984.8 1545.35 Q987.091 1545.95 989.337 1545.95 Q992.346 1545.95 993.966 1544.94 Q995.587 1543.89 995.587 1542.02 Q995.587 1540.28 994.406 1539.36 Q993.249 1538.43 989.29 1537.57 L987.809 1537.23 Q983.851 1536.39 982.091 1534.68 Q980.332 1532.95 980.332 1529.94 Q980.332 1526.28 982.925 1524.29 Q985.517 1522.3 990.286 1522.3 Q992.647 1522.3 994.73 1522.64 Q996.813 1522.99 998.573 1523.69 Z" fill="#000000" fill-rule="nonzero" fill-opacity="1"></path><path clip-path="url(#clip330)" d="M1218.52 1514.29 L1223.2 1514.29 L1223.2 1528.45 L1240.19 1528.45 L1240.19 1514.29 L1244.86 1514.29 L1244.86 1548.85 L1240.19 1548.85 L1240.19 1532.39 L1223.2 1532.39 L1223.2 1548.85 L1218.52 1548.85 L1218.52 1514.29 Z" fill="#000000" fill-rule="nonzero" fill-opacity="1"></path><path clip-path="url(#clip330)" d="M1258.61 1544.91 L1274.93 1544.91 L1274.93 1548.85 L1252.99 1548.85 L1252.99 1544.91 Q1255.65 1542.16 1260.23 1537.53 Q1264.84 1532.88 1266.02 1531.53 Q1268.26 1529.01 1269.14 1527.27 Q1270.05 1525.51 1270.05 1523.82 Q1270.05 1521.07 1268.1 1519.33 Q1266.18 1517.6 1263.08 1517.6 Q1260.88 1517.6 1258.43 1518.36 Q1256 1519.13 1253.22 1520.68 L1253.22 1515.95 Q1256.04 1514.82 1258.5 1514.24 Q1260.95 1513.66 1262.99 1513.66 Q1268.36 1513.66 1271.55 1516.35 Q1274.75 1519.03 1274.75 1523.52 Q1274.75 1525.65 1273.94 1527.57 Q1273.15 1529.47 1271.04 1532.07 Q1270.46 1532.74 1267.36 1535.95 Q1264.26 1539.15 1258.61 1544.91 Z" fill="#000000" fill-rule="nonzero" fill-opacity="1"></path><path clip-path="url(#clip330)" d="M1482.91 1514.29 L1487.59 1514.29 L1487.59 1528.45 L1504.58 1528.45 L1504.58 1514.29 L1509.25 1514.29 L1509.25 1548.85 L1504.58 1548.85 L1504.58 1532.39 L1487.59 1532.39 L1487.59 1548.85 L1482.91 1548.85 L1482.91 1514.29 Z" fill="#000000" fill-rule="nonzero" fill-opacity="1"></path><path clip-path="url(#clip330)" d="M1540.55 1534.82 L1540.55 1536.9 L1520.97 1536.9 Q1521.24 1541.3 1523.61 1543.62 Q1525.99 1545.91 1530.23 1545.91 Q1532.68 1545.91 1534.97 1545.31 Q1537.29 1544.7 1539.55 1543.5 L1539.55 1547.53 Q1537.26 1548.5 1534.86 1549.01 Q1532.45 1549.52 1529.97 1549.52 Q1523.77 1549.52 1520.13 1545.91 Q1516.52 1542.3 1516.52 1536.14 Q1516.52 1529.77 1519.95 1526.05 Q1523.4 1522.3 1529.23 1522.3 Q1534.46 1522.3 1537.49 1525.68 Q1540.55 1529.03 1540.55 1534.82 M1536.29 1533.57 Q1536.24 1530.07 1534.32 1527.99 Q1532.42 1525.91 1529.28 1525.91 Q1525.71 1525.91 1523.56 1527.92 Q1521.43 1529.94 1521.11 1533.59 L1536.29 1533.57 Z" fill="#000000" fill-rule="nonzero" fill-opacity="1"></path><path clip-path="url(#clip330)" d="M1559.32 1535.82 Q1554.16 1535.82 1552.17 1537 Q1550.18 1538.18 1550.18 1541.02 Q1550.18 1543.29 1551.66 1544.63 Q1553.17 1545.95 1555.73 1545.95 Q1559.28 1545.95 1561.41 1543.45 Q1563.56 1540.93 1563.56 1536.76 L1563.56 1535.82 L1559.32 1535.82 M1567.82 1534.06 L1567.82 1548.85 L1563.56 1548.85 L1563.56 1544.91 Q1562.1 1547.27 1559.92 1548.41 Q1557.75 1549.52 1554.6 1549.52 Q1550.62 1549.52 1548.26 1547.3 Q1545.92 1545.05 1545.92 1541.3 Q1545.92 1536.93 1548.84 1534.7 Q1551.78 1532.48 1557.59 1532.48 L1563.56 1532.48 L1563.56 1532.07 Q1563.56 1529.13 1561.61 1527.53 Q1559.69 1525.91 1556.2 1525.91 Q1553.98 1525.91 1551.87 1526.44 Q1549.76 1526.97 1547.82 1528.04 L1547.82 1524.1 Q1550.16 1523.2 1552.36 1522.76 Q1554.55 1522.3 1556.64 1522.3 Q1562.26 1522.3 1565.04 1525.21 Q1567.82 1528.13 1567.82 1534.06 Z" fill="#000000" fill-rule="nonzero" fill-opacity="1"></path><path clip-path="url(#clip330)" d="M1580.8 1515.56 L1580.8 1522.92 L1589.58 1522.92 L1589.58 1526.23 L1580.8 1526.23 L1580.8 1540.31 Q1580.8 1543.48 1581.66 1544.38 Q1582.54 1545.28 1585.2 1545.28 L1589.58 1545.28 L1589.58 1548.85 L1585.2 1548.85 Q1580.27 1548.85 1578.4 1547.02 Q1576.52 1545.17 1576.52 1540.31 L1576.52 1526.23 L1573.4 1526.23 L1573.4 1522.92 L1576.52 1522.92 L1576.52 1515.56 L1580.8 1515.56 Z" fill="#000000" fill-rule="nonzero" fill-opacity="1"></path><path clip-path="url(#clip330)" d="M1735.72 1514.29 L1742.68 1514.29 L1751.5 1537.81 L1760.37 1514.29 L1767.34 1514.29 L1767.34 1548.85 L1762.78 1548.85 L1762.78 1518.5 L1753.86 1542.2 L1749.17 1542.2 L1740.25 1518.5 L1740.25 1548.85 L1735.72 1548.85 L1735.72 1514.29 Z" fill="#000000" fill-rule="nonzero" fill-opacity="1"></path><path clip-path="url(#clip330)" d="M1786.48 1525.91 Q1783.05 1525.91 1781.06 1528.59 Q1779.07 1531.26 1779.07 1535.91 Q1779.07 1540.56 1781.04 1543.25 Q1783.03 1545.91 1786.48 1545.91 Q1789.88 1545.91 1791.87 1543.22 Q1793.86 1540.54 1793.86 1535.91 Q1793.86 1531.3 1791.87 1528.62 Q1789.88 1525.91 1786.48 1525.91 M1786.48 1522.3 Q1792.04 1522.3 1795.21 1525.91 Q1798.38 1529.52 1798.38 1535.91 Q1798.38 1542.27 1795.21 1545.91 Q1792.04 1549.52 1786.48 1549.52 Q1780.9 1549.52 1777.73 1545.91 Q1774.58 1542.27 1774.58 1535.91 Q1774.58 1529.52 1777.73 1525.91 Q1780.9 1522.3 1786.48 1522.3 Z" fill="#000000" fill-rule="nonzero" fill-opacity="1"></path><path clip-path="url(#clip330)" d="M1824.05 1535.91 Q1824.05 1531.21 1822.11 1528.55 Q1820.18 1525.86 1816.8 1525.86 Q1813.42 1525.86 1811.48 1528.55 Q1809.56 1531.21 1809.56 1535.91 Q1809.56 1540.61 1811.48 1543.29 Q1813.42 1545.95 1816.8 1545.95 Q1820.18 1545.95 1822.11 1543.29 Q1824.05 1540.61 1824.05 1535.91 M1809.56 1526.86 Q1810.9 1524.54 1812.94 1523.43 Q1815 1522.3 1817.85 1522.3 Q1822.57 1522.3 1825.51 1526.05 Q1828.47 1529.8 1828.47 1535.91 Q1828.47 1542.02 1825.51 1545.77 Q1822.57 1549.52 1817.85 1549.52 Q1815 1549.52 1812.94 1548.41 Q1810.9 1547.27 1809.56 1544.96 L1809.56 1548.85 L1805.28 1548.85 L1805.28 1512.83 L1809.56 1512.83 L1809.56 1526.86 Z" fill="#000000" fill-rule="nonzero" fill-opacity="1"></path><path clip-path="url(#clip330)" d="M1835.53 1522.92 L1839.79 1522.92 L1839.79 1548.85 L1835.53 1548.85 L1835.53 1522.92 M1835.53 1512.83 L1839.79 1512.83 L1839.79 1518.22 L1835.53 1518.22 L1835.53 1512.83 Z" fill="#000000" fill-rule="nonzero" fill-opacity="1"></path><path clip-path="url(#clip330)" d="M1848.7 1512.83 L1852.96 1512.83 L1852.96 1548.85 L1848.7 1548.85 L1848.7 1512.83 Z" fill="#000000" fill-rule="nonzero" fill-opacity="1"></path><path clip-path="url(#clip330)" d="M1861.87 1522.92 L1866.13 1522.92 L1866.13 1548.85 L1861.87 1548.85 L1861.87 1522.92 M1861.87 1512.83 L1866.13 1512.83 L1866.13 1518.22 L1861.87 1518.22 L1861.87 1512.83 Z" fill="#000000" fill-rule="nonzero" fill-opacity="1"></path><path clip-path="url(#clip330)" d="M1879.26 1515.56 L1879.26 1522.92 L1888.03 1522.92 L1888.03 1526.23 L1879.26 1526.23 L1879.26 1540.31 Q1879.26 1543.48 1880.11 1544.38 Q1880.99 1545.28 1883.66 1545.28 L1888.03 1545.28 L1888.03 1548.85 L1883.66 1548.85 Q1878.73 1548.85 1876.85 1547.02 Q1874.98 1545.17 1874.98 1540.31 L1874.98 1526.23 L1871.85 1526.23 L1871.85 1522.92 L1874.98 1522.92 L1874.98 1515.56 L1879.26 1515.56 Z" fill="#000000" fill-rule="nonzero" fill-opacity="1"></path><path clip-path="url(#clip330)" d="M1904.42 1551.26 Q1902.61 1555.88 1900.9 1557.3 Q1899.19 1558.71 1896.32 1558.71 L1892.92 1558.71 L1892.92 1555.14 L1895.42 1555.14 Q1897.17 1555.14 1898.15 1554.31 Q1899.12 1553.48 1900.3 1550.38 L1901.06 1548.43 L1890.58 1522.92 L1895.09 1522.92 L1903.19 1543.2 L1911.29 1522.92 L1915.81 1522.92 L1904.42 1551.26 Z" fill="#000000" fill-rule="nonzero" fill-opacity="1"></path><path clip-path="url(#clip330)" d="M2050.62 1518.13 L2050.62 1531.12 L2056.5 1531.12 Q2059.76 1531.12 2061.54 1529.43 Q2063.33 1527.74 2063.33 1524.61 Q2063.33 1521.51 2061.54 1519.82 Q2059.76 1518.13 2056.5 1518.13 L2050.62 1518.13 M2045.94 1514.29 L2056.5 1514.29 Q2062.31 1514.29 2065.27 1516.93 Q2068.26 1519.54 2068.26 1524.61 Q2068.26 1529.73 2065.27 1532.34 Q2062.31 1534.96 2056.5 1534.96 L2050.62 1534.96 L2050.62 1548.85 L2045.94 1548.85 L2045.94 1514.29 Z" fill="#000000" fill-rule="nonzero" fill-opacity="1"></path><path clip-path="url(#clip330)" d="M2082.7 1525.91 Q2079.27 1525.91 2077.28 1528.59 Q2075.29 1531.26 2075.29 1535.91 Q2075.29 1540.56 2077.26 1543.25 Q2079.25 1545.91 2082.7 1545.91 Q2086.1 1545.91 2088.09 1543.22 Q2090.08 1540.54 2090.08 1535.91 Q2090.08 1531.3 2088.09 1528.62 Q2086.1 1525.91 2082.7 1525.91 M2082.7 1522.3 Q2088.26 1522.3 2091.43 1525.91 Q2094.6 1529.52 2094.6 1535.91 Q2094.6 1542.27 2091.43 1545.91 Q2088.26 1549.52 2082.7 1549.52 Q2077.12 1549.52 2073.95 1545.91 Q2070.8 1542.27 2070.8 1535.91 Q2070.8 1529.52 2073.95 1525.91 Q2077.12 1522.3 2082.7 1522.3 Z" fill="#000000" fill-rule="nonzero" fill-opacity="1"></path><path clip-path="url(#clip330)" d="M2099.18 1522.92 L2103.44 1522.92 L2108.77 1543.15 L2114.07 1522.92 L2119.09 1522.92 L2124.41 1543.15 L2129.71 1522.92 L2133.97 1522.92 L2127.19 1548.85 L2122.17 1548.85 L2116.59 1527.6 L2110.99 1548.85 L2105.96 1548.85 L2099.18 1522.92 Z" fill="#000000" fill-rule="nonzero" fill-opacity="1"></path><path clip-path="url(#clip330)" d="M2162.61 1534.82 L2162.61 1536.9 L2143.02 1536.9 Q2143.3 1541.3 2145.66 1543.62 Q2148.05 1545.91 2152.28 1545.91 Q2154.74 1545.91 2157.03 1545.31 Q2159.34 1544.7 2161.61 1543.5 L2161.61 1547.53 Q2159.32 1548.5 2156.91 1549.01 Q2154.51 1549.52 2152.03 1549.52 Q2145.83 1549.52 2142.19 1545.91 Q2138.58 1542.3 2138.58 1536.14 Q2138.58 1529.77 2142.01 1526.05 Q2145.45 1522.3 2151.29 1522.3 Q2156.52 1522.3 2159.55 1525.68 Q2162.61 1529.03 2162.61 1534.82 M2158.35 1533.57 Q2158.3 1530.07 2156.38 1527.99 Q2154.48 1525.91 2151.33 1525.91 Q2147.77 1525.91 2145.62 1527.92 Q2143.49 1529.94 2143.16 1533.59 L2158.35 1533.57 Z" fill="#000000" fill-rule="nonzero" fill-opacity="1"></path><path clip-path="url(#clip330)" d="M2184.62 1526.9 Q2183.9 1526.49 2183.05 1526.3 Q2182.21 1526.09 2181.2 1526.09 Q2177.58 1526.09 2175.64 1528.45 Q2173.72 1530.79 2173.72 1535.19 L2173.72 1548.85 L2169.44 1548.85 L2169.44 1522.92 L2173.72 1522.92 L2173.72 1526.95 Q2175.06 1524.59 2177.21 1523.45 Q2179.37 1522.3 2182.45 1522.3 Q2182.89 1522.3 2183.42 1522.37 Q2183.95 1522.41 2184.6 1522.53 L2184.62 1526.9 Z" fill="#000000" fill-rule="nonzero" fill-opacity="1"></path><polyline clip-path="url(#clip332)" style="stroke:#000000; stroke-linecap:round; stroke-linejoin:round; stroke-width:2; stroke-opacity:0.1; fill:none" points="140.696,1447.87 2352.76,1447.87 "></polyline>
<polyline clip-path="url(#clip332)" style="stroke:#000000; stroke-linecap:round; stroke-linejoin:round; stroke-width:2; stroke-opacity:0.1; fill:none" points="140.696,1190.71 2352.76,1190.71 "></polyline>
<polyline clip-path="url(#clip332)" style="stroke:#000000; stroke-linecap:round; stroke-linejoin:round; stroke-width:2; stroke-opacity:0.1; fill:none" points="140.696,933.543 2352.76,933.543 "></polyline>
<polyline clip-path="url(#clip332)" style="stroke:#000000; stroke-linecap:round; stroke-linejoin:round; stroke-width:2; stroke-opacity:0.1; fill:none" points="140.696,676.377 2352.76,676.377 "></polyline>
<polyline clip-path="url(#clip332)" style="stroke:#000000; stroke-linecap:round; stroke-linejoin:round; stroke-width:2; stroke-opacity:0.1; fill:none" points="140.696,419.212 2352.76,419.212 "></polyline>
<polyline clip-path="url(#clip332)" style="stroke:#000000; stroke-linecap:round; stroke-linejoin:round; stroke-width:2; stroke-opacity:0.1; fill:none" points="140.696,162.047 2352.76,162.047 "></polyline>
<polyline clip-path="url(#clip330)" style="stroke:#000000; stroke-linecap:round; stroke-linejoin:round; stroke-width:4; stroke-opacity:1; fill:none" points="140.696,1486.45 140.696,123.472 "></polyline>
<polyline clip-path="url(#clip330)" style="stroke:#000000; stroke-linecap:round; stroke-linejoin:round; stroke-width:4; stroke-opacity:1; fill:none" points="140.696,1447.87 159.593,1447.87 "></polyline>
<polyline clip-path="url(#clip330)" style="stroke:#000000; stroke-linecap:round; stroke-linejoin:round; stroke-width:4; stroke-opacity:1; fill:none" points="140.696,1190.71 159.593,1190.71 "></polyline>
<polyline clip-path="url(#clip330)" style="stroke:#000000; stroke-linecap:round; stroke-linejoin:round; stroke-width:4; stroke-opacity:1; fill:none" points="140.696,933.543 159.593,933.543 "></polyline>
<polyline clip-path="url(#clip330)" style="stroke:#000000; stroke-linecap:round; stroke-linejoin:round; stroke-width:4; stroke-opacity:1; fill:none" points="140.696,676.377 159.593,676.377 "></polyline>
<polyline clip-path="url(#clip330)" style="stroke:#000000; stroke-linecap:round; stroke-linejoin:round; stroke-width:4; stroke-opacity:1; fill:none" points="140.696,419.212 159.593,419.212 "></polyline>
<polyline clip-path="url(#clip330)" style="stroke:#000000; stroke-linecap:round; stroke-linejoin:round; stroke-width:4; stroke-opacity:1; fill:none" points="140.696,162.047 159.593,162.047 "></polyline>
<path clip-path="url(#clip330)" d="M92.7512 1433.67 Q89.1401 1433.67 87.3114 1437.24 Q85.5058 1440.78 85.5058 1447.91 Q85.5058 1455.01 87.3114 1458.58 Q89.1401 1462.12 92.7512 1462.12 Q96.3854 1462.12 98.1909 1458.58 Q100.02 1455.01 100.02 1447.91 Q100.02 1440.78 98.1909 1437.24 Q96.3854 1433.67 92.7512 1433.67 M92.7512 1429.97 Q98.5613 1429.97 101.617 1434.57 Q104.696 1439.16 104.696 1447.91 Q104.696 1456.63 101.617 1461.24 Q98.5613 1465.82 92.7512 1465.82 Q86.941 1465.82 83.8623 1461.24 Q80.8068 1456.63 80.8068 1447.91 Q80.8068 1439.16 83.8623 1434.57 Q86.941 1429.97 92.7512 1429.97 Z" fill="#000000" fill-rule="nonzero" fill-opacity="1"></path><path clip-path="url(#clip330)" d="M83.7929 1173.43 L102.149 1173.43 L102.149 1177.36 L88.0753 1177.36 L88.0753 1185.84 Q89.0938 1185.49 90.1123 1185.33 Q91.1308 1185.14 92.1493 1185.14 Q97.9363 1185.14 101.316 1188.31 Q104.696 1191.48 104.696 1196.9 Q104.696 1202.48 101.223 1205.58 Q97.7511 1208.66 91.4317 1208.66 Q89.2558 1208.66 86.9873 1208.29 Q84.7419 1207.92 82.3346 1207.18 L82.3346 1202.48 Q84.4179 1203.61 86.6401 1204.17 Q88.8623 1204.72 91.3391 1204.72 Q95.3437 1204.72 97.6817 1202.62 Q100.02 1200.51 100.02 1196.9 Q100.02 1193.29 97.6817 1191.18 Q95.3437 1189.08 91.3391 1189.08 Q89.4641 1189.08 87.5892 1189.49 Q85.7373 1189.91 83.7929 1190.79 L83.7929 1173.43 Z" fill="#000000" fill-rule="nonzero" fill-opacity="1"></path><path clip-path="url(#clip330)" d="M53.3995 946.887 L61.0384 946.887 L61.0384 920.522 L52.7282 922.189 L52.7282 917.929 L60.9921 916.263 L65.668 916.263 L65.668 946.887 L73.3068 946.887 L73.3068 950.823 L53.3995 950.823 L53.3995 946.887 Z" fill="#000000" fill-rule="nonzero" fill-opacity="1"></path><path clip-path="url(#clip330)" d="M92.7512 919.341 Q89.1401 919.341 87.3114 922.906 Q85.5058 926.448 85.5058 933.577 Q85.5058 940.684 87.3114 944.249 Q89.1401 947.79 92.7512 947.79 Q96.3854 947.79 98.1909 944.249 Q100.02 940.684 100.02 933.577 Q100.02 926.448 98.1909 922.906 Q96.3854 919.341 92.7512 919.341 M92.7512 915.638 Q98.5613 915.638 101.617 920.244 Q104.696 924.827 104.696 933.577 Q104.696 942.304 101.617 946.911 Q98.5613 951.494 92.7512 951.494 Q86.941 951.494 83.8623 946.911 Q80.8068 942.304 80.8068 933.577 Q80.8068 924.827 83.8623 920.244 Q86.941 915.638 92.7512 915.638 Z" fill="#000000" fill-rule="nonzero" fill-opacity="1"></path><path clip-path="url(#clip330)" d="M54.3949 689.722 L62.0337 689.722 L62.0337 663.357 L53.7236 665.023 L53.7236 660.764 L61.9874 659.097 L66.6633 659.097 L66.6633 689.722 L74.3022 689.722 L74.3022 693.657 L54.3949 693.657 L54.3949 689.722 Z" fill="#000000" fill-rule="nonzero" fill-opacity="1"></path><path clip-path="url(#clip330)" d="M83.7929 659.097 L102.149 659.097 L102.149 663.033 L88.0753 663.033 L88.0753 671.505 Q89.0938 671.158 90.1123 670.995 Q91.1308 670.81 92.1493 670.81 Q97.9363 670.81 101.316 673.982 Q104.696 677.153 104.696 682.569 Q104.696 688.148 101.223 691.25 Q97.7511 694.329 91.4317 694.329 Q89.2558 694.329 86.9873 693.958 Q84.7419 693.588 82.3346 692.847 L82.3346 688.148 Q84.4179 689.282 86.6401 689.838 Q88.8623 690.394 91.3391 690.394 Q95.3437 690.394 97.6817 688.287 Q100.02 686.181 100.02 682.569 Q100.02 678.958 97.6817 676.852 Q95.3437 674.745 91.3391 674.745 Q89.4641 674.745 87.5892 675.162 Q85.7373 675.579 83.7929 676.458 L83.7929 659.097 Z" fill="#000000" fill-rule="nonzero" fill-opacity="1"></path><path clip-path="url(#clip330)" d="M56.6171 432.557 L72.9365 432.557 L72.9365 436.492 L50.9921 436.492 L50.9921 432.557 Q53.6541 429.802 58.2375 425.173 Q62.8439 420.52 64.0245 419.177 Q66.2698 416.654 67.1494 414.918 Q68.0522 413.159 68.0522 411.469 Q68.0522 408.715 66.1078 406.978 Q64.1865 405.242 61.0847 405.242 Q58.8856 405.242 56.4319 406.006 Q54.0014 406.77 51.2236 408.321 L51.2236 403.599 Q54.0477 402.465 56.5014 401.886 Q58.955 401.307 60.9921 401.307 Q66.3624 401.307 69.5568 403.992 Q72.7513 406.677 72.7513 411.168 Q72.7513 413.298 71.9411 415.219 Q71.1541 417.117 69.0476 419.71 Q68.4689 420.381 65.367 423.599 Q62.2652 426.793 56.6171 432.557 Z" fill="#000000" fill-rule="nonzero" fill-opacity="1"></path><path clip-path="url(#clip330)" d="M92.7512 405.011 Q89.1401 405.011 87.3114 408.576 Q85.5058 412.117 85.5058 419.247 Q85.5058 426.353 87.3114 429.918 Q89.1401 433.46 92.7512 433.46 Q96.3854 433.46 98.1909 429.918 Q100.02 426.353 100.02 419.247 Q100.02 412.117 98.1909 408.576 Q96.3854 405.011 92.7512 405.011 M92.7512 401.307 Q98.5613 401.307 101.617 405.914 Q104.696 410.497 104.696 419.247 Q104.696 427.974 101.617 432.58 Q98.5613 437.163 92.7512 437.163 Q86.941 437.163 83.8623 432.58 Q80.8068 427.974 80.8068 419.247 Q80.8068 410.497 83.8623 405.914 Q86.941 401.307 92.7512 401.307 Z" fill="#000000" fill-rule="nonzero" fill-opacity="1"></path><path clip-path="url(#clip330)" d="M57.6125 175.392 L73.9318 175.392 L73.9318 179.327 L51.9875 179.327 L51.9875 175.392 Q54.6495 172.637 59.2328 168.008 Q63.8393 163.355 65.0198 162.012 Q67.2652 159.489 68.1448 157.753 Q69.0476 155.994 69.0476 154.304 Q69.0476 151.549 67.1032 149.813 Q65.1819 148.077 62.08 148.077 Q59.881 148.077 57.4273 148.841 Q54.9967 149.605 52.219 151.156 L52.219 146.434 Q55.043 145.299 57.4967 144.721 Q59.9504 144.142 61.9874 144.142 Q67.3578 144.142 70.5522 146.827 Q73.7466 149.512 73.7466 154.003 Q73.7466 156.133 72.9365 158.054 Q72.1494 159.952 70.0429 162.545 Q69.4642 163.216 66.3624 166.433 Q63.2606 169.628 57.6125 175.392 Z" fill="#000000" fill-rule="nonzero" fill-opacity="1"></path><path clip-path="url(#clip330)" d="M83.7929 144.767 L102.149 144.767 L102.149 148.702 L88.0753 148.702 L88.0753 157.174 Q89.0938 156.827 90.1123 156.665 Q91.1308 156.48 92.1493 156.48 Q97.9363 156.48 101.316 159.651 Q104.696 162.822 104.696 168.239 Q104.696 173.818 101.223 176.92 Q97.7511 179.998 91.4317 179.998 Q89.2558 179.998 86.9873 179.628 Q84.7419 179.257 82.3346 178.517 L82.3346 173.818 Q84.4179 174.952 86.6401 175.507 Q88.8623 176.063 91.3391 176.063 Q95.3437 176.063 97.6817 173.957 Q100.02 171.85 100.02 168.239 Q100.02 164.628 97.6817 162.521 Q95.3437 160.415 91.3391 160.415 Q89.4641 160.415 87.5892 160.832 Q85.7373 161.248 83.7929 162.128 L83.7929 144.767 Z" fill="#000000" fill-rule="nonzero" fill-opacity="1"></path><path clip-path="url(#clip330)" d="M729.911 18.8205 L729.911 41.5461 L740.201 41.5461 Q745.912 41.5461 749.032 38.5889 Q752.151 35.6318 752.151 30.163 Q752.151 24.7348 749.032 21.7777 Q745.912 18.8205 740.201 18.8205 L729.911 18.8205 M721.729 12.096 L740.201 12.096 Q750.368 12.096 755.554 16.714 Q760.779 21.2916 760.779 30.163 Q760.779 39.1155 755.554 43.6931 Q750.368 48.2706 740.201 48.2706 L729.911 48.2706 L729.911 72.576 L721.729 72.576 L721.729 12.096 Z" fill="#000000" fill-rule="nonzero" fill-opacity="1"></path><path clip-path="url(#clip330)" d="M796.265 34.1734 Q795.009 33.4443 793.511 33.1202 Q792.052 32.7556 790.27 32.7556 Q783.95 32.7556 780.548 36.8875 Q777.185 40.9789 777.185 48.6757 L777.185 72.576 L769.691 72.576 L769.691 27.2059 L777.185 27.2059 L777.185 34.2544 Q779.535 30.1225 783.302 28.1376 Q787.07 26.1121 792.457 26.1121 Q793.227 26.1121 794.159 26.2337 Q795.09 26.3147 796.225 26.5172 L796.265 34.1734 Z" fill="#000000" fill-rule="nonzero" fill-opacity="1"></path><path clip-path="url(#clip330)" d="M819.841 32.4315 Q813.846 32.4315 810.362 37.1306 Q806.879 41.7891 806.879 49.9314 Q806.879 58.0738 810.322 62.7728 Q813.806 67.4314 819.841 67.4314 Q825.796 67.4314 829.28 62.7323 Q832.764 58.0333 832.764 49.9314 Q832.764 41.8701 829.28 37.1711 Q825.796 32.4315 819.841 32.4315 M819.841 26.1121 Q829.564 26.1121 835.113 32.4315 Q840.663 38.7509 840.663 49.9314 Q840.663 61.0714 835.113 67.4314 Q829.564 73.7508 819.841 73.7508 Q810.079 73.7508 804.529 67.4314 Q799.02 61.0714 799.02 49.9314 Q799.02 38.7509 804.529 32.4315 Q810.079 26.1121 819.841 26.1121 Z" fill="#000000" fill-rule="nonzero" fill-opacity="1"></path><path clip-path="url(#clip330)" d="M882.874 34.0924 L882.874 9.54393 L890.327 9.54393 L890.327 72.576 L882.874 72.576 L882.874 65.7705 Q880.524 69.8214 876.919 71.8063 Q873.354 73.7508 868.331 73.7508 Q860.107 73.7508 854.922 67.1883 Q849.778 60.6258 849.778 49.9314 Q849.778 39.2371 854.922 32.6746 Q860.107 26.1121 868.331 26.1121 Q873.354 26.1121 876.919 28.0971 Q880.524 30.0415 882.874 34.0924 M857.474 49.9314 Q857.474 58.1548 860.837 62.8538 Q864.239 67.5124 870.154 67.5124 Q876.068 67.5124 879.471 62.8538 Q882.874 58.1548 882.874 49.9314 Q882.874 41.7081 879.471 37.0496 Q876.068 32.3505 870.154 32.3505 Q864.239 32.3505 860.837 37.0496 Q857.474 41.7081 857.474 49.9314 Z" fill="#000000" fill-rule="nonzero" fill-opacity="1"></path><path clip-path="url(#clip330)" d="M904.91 54.671 L904.91 27.2059 L912.364 27.2059 L912.364 54.3874 Q912.364 60.8284 914.876 64.0691 Q917.387 67.2693 922.41 67.2693 Q928.446 67.2693 931.93 63.421 Q935.454 59.5726 935.454 52.9291 L935.454 27.2059 L942.908 27.2059 L942.908 72.576 L935.454 72.576 L935.454 65.6084 Q932.74 69.7404 929.135 71.7658 Q925.57 73.7508 920.83 73.7508 Q913.012 73.7508 908.961 68.8897 Q904.91 64.0286 904.91 54.671 M923.666 26.1121 L923.666 26.1121 Z" fill="#000000" fill-rule="nonzero" fill-opacity="1"></path><path clip-path="url(#clip330)" d="M990.911 28.9478 L990.911 35.9153 Q987.751 34.1734 984.551 33.3227 Q981.391 32.4315 978.151 32.4315 Q970.9 32.4315 966.889 37.0496 Q962.879 41.6271 962.879 49.9314 Q962.879 58.2358 966.889 62.8538 Q970.9 67.4314 978.151 67.4314 Q981.391 67.4314 984.551 66.5807 Q987.751 65.6895 990.911 63.9476 L990.911 70.8341 Q987.792 72.2924 984.43 73.0216 Q981.108 73.7508 977.341 73.7508 Q967.092 73.7508 961.056 67.3098 Q955.02 60.8689 955.02 49.9314 Q955.02 38.832 961.096 32.472 Q967.213 26.1121 977.827 26.1121 Q981.27 26.1121 984.551 26.8413 Q987.832 27.5299 990.911 28.9478 Z" fill="#000000" fill-rule="nonzero" fill-opacity="1"></path><path clip-path="url(#clip330)" d="M1011.25 14.324 L1011.25 27.2059 L1026.6 27.2059 L1026.6 32.9987 L1011.25 32.9987 L1011.25 57.6282 Q1011.25 63.1779 1012.75 64.7578 Q1014.28 66.3376 1018.94 66.3376 L1026.6 66.3376 L1026.6 72.576 L1018.94 72.576 Q1010.31 72.576 1007.03 69.3758 Q1003.75 66.1351 1003.75 57.6282 L1003.75 32.9987 L998.284 32.9987 L998.284 27.2059 L1003.75 27.2059 L1003.75 14.324 L1011.25 14.324 Z" fill="#000000" fill-rule="nonzero" fill-opacity="1"></path><path clip-path="url(#clip330)" d="M1036.4 27.2059 L1043.86 27.2059 L1043.86 72.576 L1036.4 72.576 L1036.4 27.2059 M1036.4 9.54393 L1043.86 9.54393 L1043.86 18.9825 L1036.4 18.9825 L1036.4 9.54393 Z" fill="#000000" fill-rule="nonzero" fill-opacity="1"></path><path clip-path="url(#clip330)" d="M1077.03 32.4315 Q1071.04 32.4315 1067.55 37.1306 Q1064.07 41.7891 1064.07 49.9314 Q1064.07 58.0738 1067.51 62.7728 Q1071 67.4314 1077.03 67.4314 Q1082.99 67.4314 1086.47 62.7323 Q1089.96 58.0333 1089.96 49.9314 Q1089.96 41.8701 1086.47 37.1711 Q1082.99 32.4315 1077.03 32.4315 M1077.03 26.1121 Q1086.76 26.1121 1092.31 32.4315 Q1097.85 38.7509 1097.85 49.9314 Q1097.85 61.0714 1092.31 67.4314 Q1086.76 73.7508 1077.03 73.7508 Q1067.27 73.7508 1061.72 67.4314 Q1056.21 61.0714 1056.21 49.9314 Q1056.21 38.7509 1061.72 32.4315 Q1067.27 26.1121 1077.03 26.1121 Z" fill="#000000" fill-rule="nonzero" fill-opacity="1"></path><path clip-path="url(#clip330)" d="M1147.92 45.1919 L1147.92 72.576 L1140.47 72.576 L1140.47 45.4349 Q1140.47 38.994 1137.96 35.7938 Q1135.45 32.5936 1130.42 32.5936 Q1124.39 32.5936 1120.9 36.4419 Q1117.42 40.2903 1117.42 46.9338 L1117.42 72.576 L1109.93 72.576 L1109.93 27.2059 L1117.42 27.2059 L1117.42 34.2544 Q1120.09 30.163 1123.7 28.1376 Q1127.35 26.1121 1132.09 26.1121 Q1139.9 26.1121 1143.91 30.9732 Q1147.92 35.7938 1147.92 45.1919 Z" fill="#000000" fill-rule="nonzero" fill-opacity="1"></path><path clip-path="url(#clip330)" d="M1221.73 49.9314 Q1221.73 41.7081 1218.33 37.0496 Q1214.97 32.3505 1209.05 32.3505 Q1203.14 32.3505 1199.74 37.0496 Q1196.37 41.7081 1196.37 49.9314 Q1196.37 58.1548 1199.74 62.8538 Q1203.14 67.5124 1209.05 67.5124 Q1214.97 67.5124 1218.33 62.8538 Q1221.73 58.1548 1221.73 49.9314 M1196.37 34.0924 Q1198.72 30.0415 1202.29 28.0971 Q1205.89 26.1121 1210.88 26.1121 Q1219.14 26.1121 1224.28 32.6746 Q1229.47 39.2371 1229.47 49.9314 Q1229.47 60.6258 1224.28 67.1883 Q1219.14 73.7508 1210.88 73.7508 Q1205.89 73.7508 1202.29 71.8063 Q1198.72 69.8214 1196.37 65.7705 L1196.37 72.576 L1188.88 72.576 L1188.88 9.54393 L1196.37 9.54393 L1196.37 34.0924 Z" fill="#000000" fill-rule="nonzero" fill-opacity="1"></path><path clip-path="url(#clip330)" d="M1260.7 76.7889 Q1257.54 84.8907 1254.54 87.3618 Q1251.55 89.8329 1246.52 89.8329 L1240.57 89.8329 L1240.57 83.5945 L1244.94 83.5945 Q1248.02 83.5945 1249.72 82.1361 Q1251.42 80.6778 1253.49 75.2496 L1254.83 71.8468 L1236.48 27.2059 L1244.38 27.2059 L1258.55 62.6918 L1272.73 27.2059 L1280.63 27.2059 L1260.7 76.7889 Z" fill="#000000" fill-rule="nonzero" fill-opacity="1"></path><path clip-path="url(#clip330)" d="M1309.23 12.096 L1360.39 12.096 L1360.39 18.9825 L1338.92 18.9825 L1338.92 72.576 L1330.7 72.576 L1330.7 18.9825 L1309.23 18.9825 L1309.23 12.096 Z" fill="#000000" fill-rule="nonzero" fill-opacity="1"></path><path clip-path="url(#clip330)" d="M1392.68 48.0275 L1392.68 51.6733 L1358.41 51.6733 Q1358.9 59.3701 1363.03 63.421 Q1367.2 67.4314 1374.61 67.4314 Q1378.91 67.4314 1382.92 66.3781 Q1386.97 65.3249 1390.94 63.2184 L1390.94 70.267 Q1386.93 71.9684 1382.71 72.8596 Q1378.5 73.7508 1374.17 73.7508 Q1363.31 73.7508 1356.95 67.4314 Q1350.63 61.1119 1350.63 50.3365 Q1350.63 39.1965 1356.63 32.6746 Q1362.66 26.1121 1372.87 26.1121 Q1382.03 26.1121 1387.33 32.0264 Q1392.68 37.9003 1392.68 48.0275 M1385.23 45.84 Q1385.15 39.7232 1381.78 36.0774 Q1378.46 32.4315 1372.95 32.4315 Q1366.71 32.4315 1362.95 35.9558 Q1359.22 39.4801 1358.65 45.8805 L1385.23 45.84 Z" fill="#000000" fill-rule="nonzero" fill-opacity="1"></path><path clip-path="url(#clip330)" d="M1437.56 28.9478 L1437.56 35.9153 Q1434.4 34.1734 1431.2 33.3227 Q1428.04 32.4315 1424.8 32.4315 Q1417.55 32.4315 1413.54 37.0496 Q1409.53 41.6271 1409.53 49.9314 Q1409.53 58.2358 1413.54 62.8538 Q1417.55 67.4314 1424.8 67.4314 Q1428.04 67.4314 1431.2 66.5807 Q1434.4 65.6895 1437.56 63.9476 L1437.56 70.8341 Q1434.44 72.2924 1431.08 73.0216 Q1427.76 73.7508 1423.99 73.7508 Q1413.74 73.7508 1407.71 67.3098 Q1401.67 60.8689 1401.67 49.9314 Q1401.67 38.832 1407.75 32.472 Q1413.87 26.1121 1424.48 26.1121 Q1427.92 26.1121 1431.2 26.8413 Q1434.49 27.5299 1437.56 28.9478 Z" fill="#000000" fill-rule="nonzero" fill-opacity="1"></path><path clip-path="url(#clip330)" d="M1488.24 45.1919 L1488.24 72.576 L1480.79 72.576 L1480.79 45.4349 Q1480.79 38.994 1478.28 35.7938 Q1475.76 32.5936 1470.74 32.5936 Q1464.7 32.5936 1461.22 36.4419 Q1457.74 40.2903 1457.74 46.9338 L1457.74 72.576 L1450.24 72.576 L1450.24 9.54393 L1457.74 9.54393 L1457.74 34.2544 Q1460.41 30.163 1464.02 28.1376 Q1467.66 26.1121 1472.4 26.1121 Q1480.22 26.1121 1484.23 30.9732 Q1488.24 35.7938 1488.24 45.1919 Z" fill="#000000" fill-rule="nonzero" fill-opacity="1"></path><path clip-path="url(#clip330)" d="M1540.82 45.1919 L1540.82 72.576 L1533.37 72.576 L1533.37 45.4349 Q1533.37 38.994 1530.86 35.7938 Q1528.34 32.5936 1523.32 32.5936 Q1517.29 32.5936 1513.8 36.4419 Q1510.32 40.2903 1510.32 46.9338 L1510.32 72.576 L1502.82 72.576 L1502.82 27.2059 L1510.32 27.2059 L1510.32 34.2544 Q1512.99 30.163 1516.6 28.1376 Q1520.24 26.1121 1524.98 26.1121 Q1532.8 26.1121 1536.81 30.9732 Q1540.82 35.7938 1540.82 45.1919 Z" fill="#000000" fill-rule="nonzero" fill-opacity="1"></path><path clip-path="url(#clip330)" d="M1573.27 32.4315 Q1567.27 32.4315 1563.79 37.1306 Q1560.31 41.7891 1560.31 49.9314 Q1560.31 58.0738 1563.75 62.7728 Q1567.23 67.4314 1573.27 67.4314 Q1579.22 67.4314 1582.71 62.7323 Q1586.19 58.0333 1586.19 49.9314 Q1586.19 41.8701 1582.71 37.1711 Q1579.22 32.4315 1573.27 32.4315 M1573.27 26.1121 Q1582.99 26.1121 1588.54 32.4315 Q1594.09 38.7509 1594.09 49.9314 Q1594.09 61.0714 1588.54 67.4314 Q1582.99 73.7508 1573.27 73.7508 Q1563.51 73.7508 1557.96 67.4314 Q1552.45 61.0714 1552.45 49.9314 Q1552.45 38.7509 1557.96 32.4315 Q1563.51 26.1121 1573.27 26.1121 Z" fill="#000000" fill-rule="nonzero" fill-opacity="1"></path><path clip-path="url(#clip330)" d="M1606.45 9.54393 L1613.9 9.54393 L1613.9 72.576 L1606.45 72.576 L1606.45 9.54393 Z" fill="#000000" fill-rule="nonzero" fill-opacity="1"></path><path clip-path="url(#clip330)" d="M1647.08 32.4315 Q1641.08 32.4315 1637.6 37.1306 Q1634.11 41.7891 1634.11 49.9314 Q1634.11 58.0738 1637.56 62.7728 Q1641.04 67.4314 1647.08 67.4314 Q1653.03 67.4314 1656.52 62.7323 Q1660 58.0333 1660 49.9314 Q1660 41.8701 1656.52 37.1711 Q1653.03 32.4315 1647.08 32.4315 M1647.08 26.1121 Q1656.8 26.1121 1662.35 32.4315 Q1667.9 38.7509 1667.9 49.9314 Q1667.9 61.0714 1662.35 67.4314 Q1656.8 73.7508 1647.08 73.7508 Q1637.31 73.7508 1631.76 67.4314 Q1626.25 61.0714 1626.25 49.9314 Q1626.25 38.7509 1631.76 32.4315 Q1637.31 26.1121 1647.08 26.1121 Z" fill="#000000" fill-rule="nonzero" fill-opacity="1"></path><path clip-path="url(#clip330)" d="M1710.11 49.3643 Q1710.11 41.2625 1706.75 36.8065 Q1703.42 32.3505 1697.39 32.3505 Q1691.39 32.3505 1688.03 36.8065 Q1684.71 41.2625 1684.71 49.3643 Q1684.71 57.4256 1688.03 61.8816 Q1691.39 66.3376 1697.39 66.3376 Q1703.42 66.3376 1706.75 61.8816 Q1710.11 57.4256 1710.11 49.3643 M1717.56 66.9452 Q1717.56 78.5308 1712.42 84.1616 Q1707.27 89.8329 1696.66 89.8329 Q1692.73 89.8329 1689.25 89.2252 Q1685.76 88.6581 1682.48 87.4428 L1682.48 80.1917 Q1685.76 81.9741 1688.96 82.8248 Q1692.16 83.6755 1695.48 83.6755 Q1702.82 83.6755 1706.46 79.8271 Q1710.11 76.0193 1710.11 68.282 L1710.11 64.5957 Q1707.8 68.6061 1704.19 70.5911 Q1700.59 72.576 1695.57 72.576 Q1687.22 72.576 1682.12 66.2161 Q1677.01 59.8562 1677.01 49.3643 Q1677.01 38.832 1682.12 32.472 Q1687.22 26.1121 1695.57 26.1121 Q1700.59 26.1121 1704.19 28.0971 Q1707.8 30.082 1710.11 34.0924 L1710.11 27.2059 L1717.56 27.2059 L1717.56 66.9452 Z" fill="#000000" fill-rule="nonzero" fill-opacity="1"></path><path clip-path="url(#clip330)" d="M1751.79 76.7889 Q1748.63 84.8907 1745.64 87.3618 Q1742.64 89.8329 1737.61 89.8329 L1731.66 89.8329 L1731.66 83.5945 L1736.03 83.5945 Q1739.11 83.5945 1740.81 82.1361 Q1742.52 80.6778 1744.58 75.2496 L1745.92 71.8468 L1727.57 27.2059 L1735.47 27.2059 L1749.65 62.6918 L1763.82 27.2059 L1771.72 27.2059 L1751.79 76.7889 Z" fill="#000000" fill-rule="nonzero" fill-opacity="1"></path><path clip-path="url(#clip332)" d="M262.363 933.543 L262.363 933.543 L493.978 933.543 L493.978 933.543 L262.363 933.543 L262.363 933.543  Z" fill="#4b830d" fill-rule="evenodd" fill-opacity="1"></path>
<polyline clip-path="url(#clip332)" style="stroke:#000000; stroke-linecap:round; stroke-linejoin:round; stroke-width:0; stroke-opacity:1; fill:none" points="262.363,933.543 262.363,933.543 493.978,933.543 262.363,933.543 "></polyline>
<path clip-path="url(#clip332)" d="M551.881 1447.87 L551.881 1447.87 L783.496 1447.87 L783.496 1447.87 L551.881 1447.87 L551.881 1447.87  Z" fill="#4b830d" fill-rule="evenodd" fill-opacity="1"></path>
<polyline clip-path="url(#clip332)" style="stroke:#000000; stroke-linecap:round; stroke-linejoin:round; stroke-width:0; stroke-opacity:1; fill:none" points="551.881,1447.87 551.881,1447.87 783.496,1447.87 551.881,1447.87 "></polyline>
<path clip-path="url(#clip332)" d="M841.4 162.047 L841.4 162.047 L1073.01 162.047 L1073.01 162.047 L841.4 162.047 L841.4 162.047  Z" fill="#4b830d" fill-rule="evenodd" fill-opacity="1"></path>
<polyline clip-path="url(#clip332)" style="stroke:#000000; stroke-linecap:round; stroke-linejoin:round; stroke-width:0; stroke-opacity:1; fill:none" points="841.4,162.047 841.4,162.047 1073.01,162.047 841.4,162.047 "></polyline>
<path clip-path="url(#clip332)" d="M1130.92 933.543 L1130.92 933.543 L1362.53 933.543 L1362.53 933.543 L1130.92 933.543 L1130.92 933.543  Z" fill="#4b830d" fill-rule="evenodd" fill-opacity="1"></path>
<polyline clip-path="url(#clip332)" style="stroke:#000000; stroke-linecap:round; stroke-linejoin:round; stroke-width:0; stroke-opacity:1; fill:none" points="1130.92,933.543 1130.92,933.543 1362.53,933.543 1130.92,933.543 "></polyline>
<path clip-path="url(#clip332)" d="M1420.44 933.543 L1420.44 933.543 L1652.05 933.543 L1652.05 933.543 L1420.44 933.543 L1420.44 933.543  Z" fill="#4b830d" fill-rule="evenodd" fill-opacity="1"></path>
<polyline clip-path="url(#clip332)" style="stroke:#000000; stroke-linecap:round; stroke-linejoin:round; stroke-width:0; stroke-opacity:1; fill:none" points="1420.44,933.543 1420.44,933.543 1652.05,933.543 1420.44,933.543 "></polyline>
<path clip-path="url(#clip332)" d="M1709.96 933.543 L1709.96 933.543 L1941.57 933.543 L1941.57 933.543 L1709.96 933.543 L1709.96 933.543  Z" fill="#4b830d" fill-rule="evenodd" fill-opacity="1"></path>
<polyline clip-path="url(#clip332)" style="stroke:#000000; stroke-linecap:round; stroke-linejoin:round; stroke-width:0; stroke-opacity:1; fill:none" points="1709.96,933.543 1709.96,933.543 1941.57,933.543 1709.96,933.543 "></polyline>
<path clip-path="url(#clip332)" d="M1999.47 162.047 L1999.47 419.212 L2231.09 419.212 L2231.09 162.047 L1999.47 162.047 L1999.47 162.047  Z" fill="#4b830d" fill-rule="evenodd" fill-opacity="1"></path>
<polyline clip-path="url(#clip332)" style="stroke:#000000; stroke-linecap:round; stroke-linejoin:round; stroke-width:0; stroke-opacity:1; fill:none" points="1999.47,162.047 1999.47,419.212 2231.09,419.212 2231.09,162.047 1999.47,162.047 "></polyline>
<circle clip-path="url(#clip332)" style="fill:#4b830d; stroke:none; fill-opacity:0" cx="378.17" cy="933.543" r="2"></circle>
<circle clip-path="url(#clip332)" style="fill:#4b830d; stroke:none; fill-opacity:0" cx="667.689" cy="1447.87" r="2"></circle>
<circle clip-path="url(#clip332)" style="fill:#4b830d; stroke:none; fill-opacity:0" cx="957.207" cy="162.047" r="2"></circle>
<circle clip-path="url(#clip332)" style="fill:#4b830d; stroke:none; fill-opacity:0" cx="1246.73" cy="933.543" r="2"></circle>
<circle clip-path="url(#clip332)" style="fill:#4b830d; stroke:none; fill-opacity:0" cx="1536.24" cy="933.543" r="2"></circle>
<circle clip-path="url(#clip332)" style="fill:#4b830d; stroke:none; fill-opacity:0" cx="1825.76" cy="933.543" r="2"></circle>
<circle clip-path="url(#clip332)" style="fill:#4b830d; stroke:none; fill-opacity:0" cx="2115.28" cy="162.047" r="2"></circle>
<path clip-path="url(#clip332)" d="M262.363 933.543 L262.363 933.543 L493.978 933.543 L493.978 933.543 L262.363 933.543 L262.363 933.543  Z" fill="#00726c" fill-rule="evenodd" fill-opacity="1"></path>
<polyline clip-path="url(#clip332)" style="stroke:#000000; stroke-linecap:round; stroke-linejoin:round; stroke-width:0; stroke-opacity:1; fill:none" points="262.363,933.543 262.363,933.543 493.978,933.543 262.363,933.543 "></polyline>
<path clip-path="url(#clip332)" d="M551.881 1447.87 L551.881 1447.87 L783.496 1447.87 L783.496 1447.87 L551.881 1447.87 L551.881 1447.87  Z" fill="#00726c" fill-rule="evenodd" fill-opacity="1"></path>
<polyline clip-path="url(#clip332)" style="stroke:#000000; stroke-linecap:round; stroke-linejoin:round; stroke-width:0; stroke-opacity:1; fill:none" points="551.881,1447.87 551.881,1447.87 783.496,1447.87 551.881,1447.87 "></polyline>
<path clip-path="url(#clip332)" d="M841.4 162.047 L841.4 162.047 L1073.01 162.047 L1073.01 162.047 L841.4 162.047 L841.4 162.047  Z" fill="#00726c" fill-rule="evenodd" fill-opacity="1"></path>
<polyline clip-path="url(#clip332)" style="stroke:#000000; stroke-linecap:round; stroke-linejoin:round; stroke-width:0; stroke-opacity:1; fill:none" points="841.4,162.047 841.4,162.047 1073.01,162.047 841.4,162.047 "></polyline>
<path clip-path="url(#clip332)" d="M1130.92 933.543 L1130.92 933.543 L1362.53 933.543 L1362.53 933.543 L1130.92 933.543 L1130.92 933.543  Z" fill="#00726c" fill-rule="evenodd" fill-opacity="1"></path>
<polyline clip-path="url(#clip332)" style="stroke:#000000; stroke-linecap:round; stroke-linejoin:round; stroke-width:0; stroke-opacity:1; fill:none" points="1130.92,933.543 1130.92,933.543 1362.53,933.543 1130.92,933.543 "></polyline>
<path clip-path="url(#clip332)" d="M1420.44 933.543 L1420.44 933.543 L1652.05 933.543 L1652.05 933.543 L1420.44 933.543 L1420.44 933.543  Z" fill="#00726c" fill-rule="evenodd" fill-opacity="1"></path>
<polyline clip-path="url(#clip332)" style="stroke:#000000; stroke-linecap:round; stroke-linejoin:round; stroke-width:0; stroke-opacity:1; fill:none" points="1420.44,933.543 1420.44,933.543 1652.05,933.543 1420.44,933.543 "></polyline>
<path clip-path="url(#clip332)" d="M1709.96 933.543 L1709.96 933.543 L1941.57 933.543 L1941.57 933.543 L1709.96 933.543 L1709.96 933.543  Z" fill="#00726c" fill-rule="evenodd" fill-opacity="1"></path>
<polyline clip-path="url(#clip332)" style="stroke:#000000; stroke-linecap:round; stroke-linejoin:round; stroke-width:0; stroke-opacity:1; fill:none" points="1709.96,933.543 1709.96,933.543 1941.57,933.543 1709.96,933.543 "></polyline>
<path clip-path="url(#clip332)" d="M1999.47 419.212 L1999.47 419.212 L2231.09 419.212 L2231.09 419.212 L1999.47 419.212 L1999.47 419.212  Z" fill="#00726c" fill-rule="evenodd" fill-opacity="1"></path>
<polyline clip-path="url(#clip332)" style="stroke:#000000; stroke-linecap:round; stroke-linejoin:round; stroke-width:0; stroke-opacity:1; fill:none" points="1999.47,419.212 1999.47,419.212 2231.09,419.212 1999.47,419.212 "></polyline>
<circle clip-path="url(#clip332)" style="fill:#00726c; stroke:none; fill-opacity:0" cx="378.17" cy="933.543" r="2"></circle>
<circle clip-path="url(#clip332)" style="fill:#00726c; stroke:none; fill-opacity:0" cx="667.689" cy="1447.87" r="2"></circle>
<circle clip-path="url(#clip332)" style="fill:#00726c; stroke:none; fill-opacity:0" cx="957.207" cy="162.047" r="2"></circle>
<circle clip-path="url(#clip332)" style="fill:#00726c; stroke:none; fill-opacity:0" cx="1246.73" cy="933.543" r="2"></circle>
<circle clip-path="url(#clip332)" style="fill:#00726c; stroke:none; fill-opacity:0" cx="1536.24" cy="933.543" r="2"></circle>
<circle clip-path="url(#clip332)" style="fill:#00726c; stroke:none; fill-opacity:0" cx="1825.76" cy="933.543" r="2"></circle>
<circle clip-path="url(#clip332)" style="fill:#00726c; stroke:none; fill-opacity:0" cx="2115.28" cy="419.212" r="2"></circle>
<path clip-path="url(#clip332)" d="M262.363 933.543 L262.363 1447.87 L493.978 1447.87 L493.978 933.543 L262.363 933.543 L262.363 933.543  Z" fill="#4b830d" fill-rule="evenodd" fill-opacity="1"></path>
<polyline clip-path="url(#clip332)" style="stroke:#000000; stroke-linecap:round; stroke-linejoin:round; stroke-width:0; stroke-opacity:1; fill:none" points="262.363,933.543 262.363,1447.87 493.978,1447.87 493.978,933.543 262.363,933.543 "></polyline>
<path clip-path="url(#clip332)" d="M551.881 1447.87 L551.881 1447.87 L783.496 1447.87 L783.496 1447.87 L551.881 1447.87 L551.881 1447.87  Z" fill="#4b830d" fill-rule="evenodd" fill-opacity="1"></path>
<polyline clip-path="url(#clip332)" style="stroke:#000000; stroke-linecap:round; stroke-linejoin:round; stroke-width:0; stroke-opacity:1; fill:none" points="551.881,1447.87 551.881,1447.87 783.496,1447.87 551.881,1447.87 "></polyline>
<path clip-path="url(#clip332)" d="M841.4 162.047 L841.4 162.047 L1073.01 162.047 L1073.01 162.047 L841.4 162.047 L841.4 162.047  Z" fill="#4b830d" fill-rule="evenodd" fill-opacity="1"></path>
<polyline clip-path="url(#clip332)" style="stroke:#000000; stroke-linecap:round; stroke-linejoin:round; stroke-width:0; stroke-opacity:1; fill:none" points="841.4,162.047 841.4,162.047 1073.01,162.047 841.4,162.047 "></polyline>
<path clip-path="url(#clip332)" d="M1130.92 933.543 L1130.92 933.543 L1362.53 933.543 L1362.53 933.543 L1130.92 933.543 L1130.92 933.543  Z" fill="#4b830d" fill-rule="evenodd" fill-opacity="1"></path>
<polyline clip-path="url(#clip332)" style="stroke:#000000; stroke-linecap:round; stroke-linejoin:round; stroke-width:0; stroke-opacity:1; fill:none" points="1130.92,933.543 1130.92,933.543 1362.53,933.543 1130.92,933.543 "></polyline>
<path clip-path="url(#clip332)" d="M1420.44 933.543 L1420.44 933.543 L1652.05 933.543 L1652.05 933.543 L1420.44 933.543 L1420.44 933.543  Z" fill="#4b830d" fill-rule="evenodd" fill-opacity="1"></path>
<polyline clip-path="url(#clip332)" style="stroke:#000000; stroke-linecap:round; stroke-linejoin:round; stroke-width:0; stroke-opacity:1; fill:none" points="1420.44,933.543 1420.44,933.543 1652.05,933.543 1420.44,933.543 "></polyline>
<path clip-path="url(#clip332)" d="M1709.96 933.543 L1709.96 933.543 L1941.57 933.543 L1941.57 933.543 L1709.96 933.543 L1709.96 933.543  Z" fill="#4b830d" fill-rule="evenodd" fill-opacity="1"></path>
<polyline clip-path="url(#clip332)" style="stroke:#000000; stroke-linecap:round; stroke-linejoin:round; stroke-width:0; stroke-opacity:1; fill:none" points="1709.96,933.543 1709.96,933.543 1941.57,933.543 1709.96,933.543 "></polyline>
<path clip-path="url(#clip332)" d="M1999.47 419.212 L1999.47 419.212 L2231.09 419.212 L2231.09 419.212 L1999.47 419.212 L1999.47 419.212  Z" fill="#4b830d" fill-rule="evenodd" fill-opacity="1"></path>
<polyline clip-path="url(#clip332)" style="stroke:#000000; stroke-linecap:round; stroke-linejoin:round; stroke-width:0; stroke-opacity:1; fill:none" points="1999.47,419.212 1999.47,419.212 2231.09,419.212 1999.47,419.212 "></polyline>
<circle clip-path="url(#clip332)" style="fill:#4b830d; stroke:none; fill-opacity:0" cx="378.17" cy="933.543" r="2"></circle>
<circle clip-path="url(#clip332)" style="fill:#4b830d; stroke:none; fill-opacity:0" cx="667.689" cy="1447.87" r="2"></circle>
<circle clip-path="url(#clip332)" style="fill:#4b830d; stroke:none; fill-opacity:0" cx="957.207" cy="162.047" r="2"></circle>
<circle clip-path="url(#clip332)" style="fill:#4b830d; stroke:none; fill-opacity:0" cx="1246.73" cy="933.543" r="2"></circle>
<circle clip-path="url(#clip332)" style="fill:#4b830d; stroke:none; fill-opacity:0" cx="1536.24" cy="933.543" r="2"></circle>
<circle clip-path="url(#clip332)" style="fill:#4b830d; stroke:none; fill-opacity:0" cx="1825.76" cy="933.543" r="2"></circle>
<circle clip-path="url(#clip332)" style="fill:#4b830d; stroke:none; fill-opacity:0" cx="2115.28" cy="419.212" r="2"></circle>
<path clip-path="url(#clip332)" d="M262.363 1447.87 L262.363 1447.87 L493.978 1447.87 L493.978 1447.87 L262.363 1447.87 L262.363 1447.87  Z" fill="#472111" fill-rule="evenodd" fill-opacity="1"></path>
<polyline clip-path="url(#clip332)" style="stroke:#000000; stroke-linecap:round; stroke-linejoin:round; stroke-width:0; stroke-opacity:1; fill:none" points="262.363,1447.87 262.363,1447.87 493.978,1447.87 262.363,1447.87 "></polyline>
<path clip-path="url(#clip332)" d="M551.881 1447.87 L551.881 1447.87 L783.496 1447.87 L783.496 1447.87 L551.881 1447.87 L551.881 1447.87  Z" fill="#472111" fill-rule="evenodd" fill-opacity="1"></path>
<polyline clip-path="url(#clip332)" style="stroke:#000000; stroke-linecap:round; stroke-linejoin:round; stroke-width:0; stroke-opacity:1; fill:none" points="551.881,1447.87 551.881,1447.87 783.496,1447.87 551.881,1447.87 "></polyline>
<path clip-path="url(#clip332)" d="M841.4 162.047 L841.4 162.047 L1073.01 162.047 L1073.01 162.047 L841.4 162.047 L841.4 162.047  Z" fill="#472111" fill-rule="evenodd" fill-opacity="1"></path>
<polyline clip-path="url(#clip332)" style="stroke:#000000; stroke-linecap:round; stroke-linejoin:round; stroke-width:0; stroke-opacity:1; fill:none" points="841.4,162.047 841.4,162.047 1073.01,162.047 841.4,162.047 "></polyline>
<path clip-path="url(#clip332)" d="M1130.92 933.543 L1130.92 933.543 L1362.53 933.543 L1362.53 933.543 L1130.92 933.543 L1130.92 933.543  Z" fill="#472111" fill-rule="evenodd" fill-opacity="1"></path>
<polyline clip-path="url(#clip332)" style="stroke:#000000; stroke-linecap:round; stroke-linejoin:round; stroke-width:0; stroke-opacity:1; fill:none" points="1130.92,933.543 1130.92,933.543 1362.53,933.543 1130.92,933.543 "></polyline>
<path clip-path="url(#clip332)" d="M1420.44 1447.87 L1420.44 1447.87 L1652.05 1447.87 L1652.05 1447.87 L1420.44 1447.87 L1420.44 1447.87  Z" fill="#472111" fill-rule="evenodd" fill-opacity="1"></path>
<polyline clip-path="url(#clip332)" style="stroke:#000000; stroke-linecap:round; stroke-linejoin:round; stroke-width:0; stroke-opacity:1; fill:none" points="1420.44,1447.87 1420.44,1447.87 1652.05,1447.87 1652.05,1447.87 1420.44,1447.87 "></polyline>
<path clip-path="url(#clip332)" d="M1709.96 933.543 L1709.96 933.543 L1941.57 933.543 L1941.57 933.543 L1709.96 933.543 L1709.96 933.543  Z" fill="#472111" fill-rule="evenodd" fill-opacity="1"></path>
<polyline clip-path="url(#clip332)" style="stroke:#000000; stroke-linecap:round; stroke-linejoin:round; stroke-width:0; stroke-opacity:1; fill:none" points="1709.96,933.543 1709.96,933.543 1941.57,933.543 1709.96,933.543 "></polyline>
<path clip-path="url(#clip332)" d="M1999.47 1447.87 L1999.47 1447.87 L2231.09 1447.87 L2231.09 1447.87 L1999.47 1447.87 L1999.47 1447.87  Z" fill="#472111" fill-rule="evenodd" fill-opacity="1"></path>
<polyline clip-path="url(#clip332)" style="stroke:#000000; stroke-linecap:round; stroke-linejoin:round; stroke-width:0; stroke-opacity:1; fill:none" points="1999.47,1447.87 1999.47,1447.87 2231.09,1447.87 2231.09,1447.87 1999.47,1447.87 "></polyline>
<circle clip-path="url(#clip332)" style="fill:#472111; stroke:none; fill-opacity:0" cx="378.17" cy="1447.87" r="2"></circle>
<circle clip-path="url(#clip332)" style="fill:#472111; stroke:none; fill-opacity:0" cx="667.689" cy="1447.87" r="2"></circle>
<circle clip-path="url(#clip332)" style="fill:#472111; stroke:none; fill-opacity:0" cx="957.207" cy="162.047" r="2"></circle>
<circle clip-path="url(#clip332)" style="fill:#472111; stroke:none; fill-opacity:0" cx="1246.73" cy="933.543" r="2"></circle>
<circle clip-path="url(#clip332)" style="fill:#472111; stroke:none; fill-opacity:0" cx="1536.24" cy="1447.87" r="2"></circle>
<circle clip-path="url(#clip332)" style="fill:#472111; stroke:none; fill-opacity:0" cx="1825.76" cy="933.543" r="2"></circle>
<circle clip-path="url(#clip332)" style="fill:#472111; stroke:none; fill-opacity:0" cx="2115.28" cy="1447.87" r="2"></circle>
<path clip-path="url(#clip332)" d="M262.363 1447.87 L262.363 1447.87 L493.978 1447.87 L493.978 1447.87 L262.363 1447.87 L262.363 1447.87  Z" fill="#4d3d35" fill-rule="evenodd" fill-opacity="1"></path>
<polyline clip-path="url(#clip332)" style="stroke:#000000; stroke-linecap:round; stroke-linejoin:round; stroke-width:0; stroke-opacity:1; fill:none" points="262.363,1447.87 262.363,1447.87 493.978,1447.87 262.363,1447.87 "></polyline>
<path clip-path="url(#clip332)" d="M551.881 1447.87 L551.881 1447.87 L783.496 1447.87 L783.496 1447.87 L551.881 1447.87 L551.881 1447.87  Z" fill="#4d3d35" fill-rule="evenodd" fill-opacity="1"></path>
<polyline clip-path="url(#clip332)" style="stroke:#000000; stroke-linecap:round; stroke-linejoin:round; stroke-width:0; stroke-opacity:1; fill:none" points="551.881,1447.87 551.881,1447.87 783.496,1447.87 551.881,1447.87 "></polyline>
<path clip-path="url(#clip332)" d="M841.4 162.047 L841.4 162.047 L1073.01 162.047 L1073.01 162.047 L841.4 162.047 L841.4 162.047  Z" fill="#4d3d35" fill-rule="evenodd" fill-opacity="1"></path>
<polyline clip-path="url(#clip332)" style="stroke:#000000; stroke-linecap:round; stroke-linejoin:round; stroke-width:0; stroke-opacity:1; fill:none" points="841.4,162.047 841.4,162.047 1073.01,162.047 841.4,162.047 "></polyline>
<path clip-path="url(#clip332)" d="M1130.92 933.543 L1130.92 933.543 L1362.53 933.543 L1362.53 933.543 L1130.92 933.543 L1130.92 933.543  Z" fill="#4d3d35" fill-rule="evenodd" fill-opacity="1"></path>
<polyline clip-path="url(#clip332)" style="stroke:#000000; stroke-linecap:round; stroke-linejoin:round; stroke-width:0; stroke-opacity:1; fill:none" points="1130.92,933.543 1130.92,933.543 1362.53,933.543 1130.92,933.543 "></polyline>
<path clip-path="url(#clip332)" d="M1420.44 933.543 L1420.44 933.543 L1652.05 933.543 L1652.05 933.543 L1420.44 933.543 L1420.44 933.543  Z" fill="#4d3d35" fill-rule="evenodd" fill-opacity="1"></path>
<polyline clip-path="url(#clip332)" style="stroke:#000000; stroke-linecap:round; stroke-linejoin:round; stroke-width:0; stroke-opacity:1; fill:none" points="1420.44,933.543 1420.44,933.543 1652.05,933.543 1420.44,933.543 "></polyline>
<path clip-path="url(#clip332)" d="M1709.96 933.543 L1709.96 933.543 L1941.57 933.543 L1941.57 933.543 L1709.96 933.543 L1709.96 933.543  Z" fill="#4d3d35" fill-rule="evenodd" fill-opacity="1"></path>
<polyline clip-path="url(#clip332)" style="stroke:#000000; stroke-linecap:round; stroke-linejoin:round; stroke-width:0; stroke-opacity:1; fill:none" points="1709.96,933.543 1709.96,933.543 1941.57,933.543 1709.96,933.543 "></polyline>
<path clip-path="url(#clip332)" d="M1999.47 419.212 L1999.47 419.212 L2231.09 419.212 L2231.09 419.212 L1999.47 419.212 L1999.47 419.212  Z" fill="#4d3d35" fill-rule="evenodd" fill-opacity="1"></path>
<polyline clip-path="url(#clip332)" style="stroke:#000000; stroke-linecap:round; stroke-linejoin:round; stroke-width:0; stroke-opacity:1; fill:none" points="1999.47,419.212 1999.47,419.212 2231.09,419.212 1999.47,419.212 "></polyline>
<circle clip-path="url(#clip332)" style="fill:#4d3d35; stroke:none; fill-opacity:0" cx="378.17" cy="1447.87" r="2"></circle>
<circle clip-path="url(#clip332)" style="fill:#4d3d35; stroke:none; fill-opacity:0" cx="667.689" cy="1447.87" r="2"></circle>
<circle clip-path="url(#clip332)" style="fill:#4d3d35; stroke:none; fill-opacity:0" cx="957.207" cy="162.047" r="2"></circle>
<circle clip-path="url(#clip332)" style="fill:#4d3d35; stroke:none; fill-opacity:0" cx="1246.73" cy="933.543" r="2"></circle>
<circle clip-path="url(#clip332)" style="fill:#4d3d35; stroke:none; fill-opacity:0" cx="1536.24" cy="933.543" r="2"></circle>
<circle clip-path="url(#clip332)" style="fill:#4d3d35; stroke:none; fill-opacity:0" cx="1825.76" cy="933.543" r="2"></circle>
<circle clip-path="url(#clip332)" style="fill:#4d3d35; stroke:none; fill-opacity:0" cx="2115.28" cy="419.212" r="2"></circle>
<path clip-path="url(#clip332)" d="M262.363 1447.87 L262.363 1447.87 L493.978 1447.87 L493.978 1447.87 L262.363 1447.87 L262.363 1447.87  Z" fill="#754937" fill-rule="evenodd" fill-opacity="1"></path>
<polyline clip-path="url(#clip332)" style="stroke:#000000; stroke-linecap:round; stroke-linejoin:round; stroke-width:0; stroke-opacity:1; fill:none" points="262.363,1447.87 262.363,1447.87 493.978,1447.87 262.363,1447.87 "></polyline>
<path clip-path="url(#clip332)" d="M551.881 1447.87 L551.881 1447.87 L783.496 1447.87 L783.496 1447.87 L551.881 1447.87 L551.881 1447.87  Z" fill="#754937" fill-rule="evenodd" fill-opacity="1"></path>
<polyline clip-path="url(#clip332)" style="stroke:#000000; stroke-linecap:round; stroke-linejoin:round; stroke-width:0; stroke-opacity:1; fill:none" points="551.881,1447.87 551.881,1447.87 783.496,1447.87 551.881,1447.87 "></polyline>
<path clip-path="url(#clip332)" d="M841.4 162.047 L841.4 162.047 L1073.01 162.047 L1073.01 162.047 L841.4 162.047 L841.4 162.047  Z" fill="#754937" fill-rule="evenodd" fill-opacity="1"></path>
<polyline clip-path="url(#clip332)" style="stroke:#000000; stroke-linecap:round; stroke-linejoin:round; stroke-width:0; stroke-opacity:1; fill:none" points="841.4,162.047 841.4,162.047 1073.01,162.047 841.4,162.047 "></polyline>
<path clip-path="url(#clip332)" d="M1130.92 933.543 L1130.92 933.543 L1362.53 933.543 L1362.53 933.543 L1130.92 933.543 L1130.92 933.543  Z" fill="#754937" fill-rule="evenodd" fill-opacity="1"></path>
<polyline clip-path="url(#clip332)" style="stroke:#000000; stroke-linecap:round; stroke-linejoin:round; stroke-width:0; stroke-opacity:1; fill:none" points="1130.92,933.543 1130.92,933.543 1362.53,933.543 1130.92,933.543 "></polyline>
<path clip-path="url(#clip332)" d="M1420.44 933.543 L1420.44 933.543 L1652.05 933.543 L1652.05 933.543 L1420.44 933.543 L1420.44 933.543  Z" fill="#754937" fill-rule="evenodd" fill-opacity="1"></path>
<polyline clip-path="url(#clip332)" style="stroke:#000000; stroke-linecap:round; stroke-linejoin:round; stroke-width:0; stroke-opacity:1; fill:none" points="1420.44,933.543 1420.44,933.543 1652.05,933.543 1420.44,933.543 "></polyline>
<path clip-path="url(#clip332)" d="M1709.96 1447.87 L1709.96 1447.87 L1941.57 1447.87 L1941.57 1447.87 L1709.96 1447.87 L1709.96 1447.87  Z" fill="#754937" fill-rule="evenodd" fill-opacity="1"></path>
<polyline clip-path="url(#clip332)" style="stroke:#000000; stroke-linecap:round; stroke-linejoin:round; stroke-width:0; stroke-opacity:1; fill:none" points="1709.96,1447.87 1709.96,1447.87 1941.57,1447.87 1941.57,1447.87 1709.96,1447.87 "></polyline>
<path clip-path="url(#clip332)" d="M1999.47 419.212 L1999.47 419.212 L2231.09 419.212 L2231.09 419.212 L1999.47 419.212 L1999.47 419.212  Z" fill="#754937" fill-rule="evenodd" fill-opacity="1"></path>
<polyline clip-path="url(#clip332)" style="stroke:#000000; stroke-linecap:round; stroke-linejoin:round; stroke-width:0; stroke-opacity:1; fill:none" points="1999.47,419.212 1999.47,419.212 2231.09,419.212 1999.47,419.212 "></polyline>
<circle clip-path="url(#clip332)" style="fill:#754937; stroke:none; fill-opacity:0" cx="378.17" cy="1447.87" r="2"></circle>
<circle clip-path="url(#clip332)" style="fill:#754937; stroke:none; fill-opacity:0" cx="667.689" cy="1447.87" r="2"></circle>
<circle clip-path="url(#clip332)" style="fill:#754937; stroke:none; fill-opacity:0" cx="957.207" cy="162.047" r="2"></circle>
<circle clip-path="url(#clip332)" style="fill:#754937; stroke:none; fill-opacity:0" cx="1246.73" cy="933.543" r="2"></circle>
<circle clip-path="url(#clip332)" style="fill:#754937; stroke:none; fill-opacity:0" cx="1536.24" cy="933.543" r="2"></circle>
<circle clip-path="url(#clip332)" style="fill:#754937; stroke:none; fill-opacity:0" cx="1825.76" cy="1447.87" r="2"></circle>
<circle clip-path="url(#clip332)" style="fill:#754937; stroke:none; fill-opacity:0" cx="2115.28" cy="419.212" r="2"></circle>
<path clip-path="url(#clip332)" d="M262.363 1447.87 L262.363 1447.87 L493.978 1447.87 L493.978 1447.87 L262.363 1447.87 L262.363 1447.87  Z" fill="#880000" fill-rule="evenodd" fill-opacity="1"></path>
<polyline clip-path="url(#clip332)" style="stroke:#000000; stroke-linecap:round; stroke-linejoin:round; stroke-width:0; stroke-opacity:1; fill:none" points="262.363,1447.87 262.363,1447.87 493.978,1447.87 262.363,1447.87 "></polyline>
<path clip-path="url(#clip332)" d="M551.881 1447.87 L551.881 1447.87 L783.496 1447.87 L783.496 1447.87 L551.881 1447.87 L551.881 1447.87  Z" fill="#880000" fill-rule="evenodd" fill-opacity="1"></path>
<polyline clip-path="url(#clip332)" style="stroke:#000000; stroke-linecap:round; stroke-linejoin:round; stroke-width:0; stroke-opacity:1; fill:none" points="551.881,1447.87 551.881,1447.87 783.496,1447.87 551.881,1447.87 "></polyline>
<path clip-path="url(#clip332)" d="M841.4 162.047 L841.4 162.047 L1073.01 162.047 L1073.01 162.047 L841.4 162.047 L841.4 162.047  Z" fill="#880000" fill-rule="evenodd" fill-opacity="1"></path>
<polyline clip-path="url(#clip332)" style="stroke:#000000; stroke-linecap:round; stroke-linejoin:round; stroke-width:0; stroke-opacity:1; fill:none" points="841.4,162.047 841.4,162.047 1073.01,162.047 841.4,162.047 "></polyline>
<path clip-path="url(#clip332)" d="M1130.92 933.543 L1130.92 933.543 L1362.53 933.543 L1362.53 933.543 L1130.92 933.543 L1130.92 933.543  Z" fill="#880000" fill-rule="evenodd" fill-opacity="1"></path>
<polyline clip-path="url(#clip332)" style="stroke:#000000; stroke-linecap:round; stroke-linejoin:round; stroke-width:0; stroke-opacity:1; fill:none" points="1130.92,933.543 1130.92,933.543 1362.53,933.543 1130.92,933.543 "></polyline>
<path clip-path="url(#clip332)" d="M1420.44 933.543 L1420.44 1447.87 L1652.05 1447.87 L1652.05 933.543 L1420.44 933.543 L1420.44 933.543  Z" fill="#880000" fill-rule="evenodd" fill-opacity="1"></path>
<polyline clip-path="url(#clip332)" style="stroke:#000000; stroke-linecap:round; stroke-linejoin:round; stroke-width:0; stroke-opacity:1; fill:none" points="1420.44,933.543 1420.44,1447.87 1652.05,1447.87 1652.05,933.543 1420.44,933.543 "></polyline>
<path clip-path="url(#clip332)" d="M1709.96 933.543 L1709.96 933.543 L1941.57 933.543 L1941.57 933.543 L1709.96 933.543 L1709.96 933.543  Z" fill="#880000" fill-rule="evenodd" fill-opacity="1"></path>
<polyline clip-path="url(#clip332)" style="stroke:#000000; stroke-linecap:round; stroke-linejoin:round; stroke-width:0; stroke-opacity:1; fill:none" points="1709.96,933.543 1709.96,933.543 1941.57,933.543 1709.96,933.543 "></polyline>
<path clip-path="url(#clip332)" d="M1999.47 419.212 L1999.47 676.377 L2231.09 676.377 L2231.09 419.212 L1999.47 419.212 L1999.47 419.212  Z" fill="#880000" fill-rule="evenodd" fill-opacity="1"></path>
<polyline clip-path="url(#clip332)" style="stroke:#000000; stroke-linecap:round; stroke-linejoin:round; stroke-width:0; stroke-opacity:1; fill:none" points="1999.47,419.212 1999.47,676.377 2231.09,676.377 2231.09,419.212 1999.47,419.212 "></polyline>
<circle clip-path="url(#clip332)" style="fill:#880000; stroke:none; fill-opacity:0" cx="378.17" cy="1447.87" r="2"></circle>
<circle clip-path="url(#clip332)" style="fill:#880000; stroke:none; fill-opacity:0" cx="667.689" cy="1447.87" r="2"></circle>
<circle clip-path="url(#clip332)" style="fill:#880000; stroke:none; fill-opacity:0" cx="957.207" cy="162.047" r="2"></circle>
<circle clip-path="url(#clip332)" style="fill:#880000; stroke:none; fill-opacity:0" cx="1246.73" cy="933.543" r="2"></circle>
<circle clip-path="url(#clip332)" style="fill:#880000; stroke:none; fill-opacity:0" cx="1536.24" cy="933.543" r="2"></circle>
<circle clip-path="url(#clip332)" style="fill:#880000; stroke:none; fill-opacity:0" cx="1825.76" cy="933.543" r="2"></circle>
<circle clip-path="url(#clip332)" style="fill:#880000; stroke:none; fill-opacity:0" cx="2115.28" cy="419.212" r="2"></circle>
<path clip-path="url(#clip332)" d="M262.363 1447.87 L262.363 1447.87 L493.978 1447.87 L493.978 1447.87 L262.363 1447.87 L262.363 1447.87  Z" fill="#ff814b" fill-rule="evenodd" fill-opacity="1"></path>
<polyline clip-path="url(#clip332)" style="stroke:#000000; stroke-linecap:round; stroke-linejoin:round; stroke-width:0; stroke-opacity:1; fill:none" points="262.363,1447.87 262.363,1447.87 493.978,1447.87 262.363,1447.87 "></polyline>
<path clip-path="url(#clip332)" d="M551.881 1447.87 L551.881 1447.87 L783.496 1447.87 L783.496 1447.87 L551.881 1447.87 L551.881 1447.87  Z" fill="#ff814b" fill-rule="evenodd" fill-opacity="1"></path>
<polyline clip-path="url(#clip332)" style="stroke:#000000; stroke-linecap:round; stroke-linejoin:round; stroke-width:0; stroke-opacity:1; fill:none" points="551.881,1447.87 551.881,1447.87 783.496,1447.87 551.881,1447.87 "></polyline>
<path clip-path="url(#clip332)" d="M841.4 162.047 L841.4 1447.87 L1073.01 1447.87 L1073.01 162.047 L841.4 162.047 L841.4 162.047  Z" fill="#ff814b" fill-rule="evenodd" fill-opacity="1"></path>
<polyline clip-path="url(#clip332)" style="stroke:#000000; stroke-linecap:round; stroke-linejoin:round; stroke-width:0; stroke-opacity:1; fill:none" points="841.4,162.047 841.4,1447.87 1073.01,1447.87 1073.01,162.047 841.4,162.047 "></polyline>
<path clip-path="url(#clip332)" d="M1130.92 933.543 L1130.92 933.543 L1362.53 933.543 L1362.53 933.543 L1130.92 933.543 L1130.92 933.543  Z" fill="#ff814b" fill-rule="evenodd" fill-opacity="1"></path>
<polyline clip-path="url(#clip332)" style="stroke:#000000; stroke-linecap:round; stroke-linejoin:round; stroke-width:0; stroke-opacity:1; fill:none" points="1130.92,933.543 1130.92,933.543 1362.53,933.543 1130.92,933.543 "></polyline>
<path clip-path="url(#clip332)" d="M1420.44 1447.87 L1420.44 1447.87 L1652.05 1447.87 L1652.05 1447.87 L1420.44 1447.87 L1420.44 1447.87  Z" fill="#ff814b" fill-rule="evenodd" fill-opacity="1"></path>
<polyline clip-path="url(#clip332)" style="stroke:#000000; stroke-linecap:round; stroke-linejoin:round; stroke-width:0; stroke-opacity:1; fill:none" points="1420.44,1447.87 1420.44,1447.87 1652.05,1447.87 1420.44,1447.87 "></polyline>
<path clip-path="url(#clip332)" d="M1709.96 933.543 L1709.96 933.543 L1941.57 933.543 L1941.57 933.543 L1709.96 933.543 L1709.96 933.543  Z" fill="#ff814b" fill-rule="evenodd" fill-opacity="1"></path>
<polyline clip-path="url(#clip332)" style="stroke:#000000; stroke-linecap:round; stroke-linejoin:round; stroke-width:0; stroke-opacity:1; fill:none" points="1709.96,933.543 1709.96,933.543 1941.57,933.543 1709.96,933.543 "></polyline>
<path clip-path="url(#clip332)" d="M1999.47 676.377 L1999.47 676.377 L2231.09 676.377 L2231.09 676.377 L1999.47 676.377 L1999.47 676.377  Z" fill="#ff814b" fill-rule="evenodd" fill-opacity="1"></path>
<polyline clip-path="url(#clip332)" style="stroke:#000000; stroke-linecap:round; stroke-linejoin:round; stroke-width:0; stroke-opacity:1; fill:none" points="1999.47,676.377 1999.47,676.377 2231.09,676.377 1999.47,676.377 "></polyline>
<circle clip-path="url(#clip332)" style="fill:#ff814b; stroke:none; fill-opacity:0" cx="378.17" cy="1447.87" r="2"></circle>
<circle clip-path="url(#clip332)" style="fill:#ff814b; stroke:none; fill-opacity:0" cx="667.689" cy="1447.87" r="2"></circle>
<circle clip-path="url(#clip332)" style="fill:#ff814b; stroke:none; fill-opacity:0" cx="957.207" cy="162.047" r="2"></circle>
<circle clip-path="url(#clip332)" style="fill:#ff814b; stroke:none; fill-opacity:0" cx="1246.73" cy="933.543" r="2"></circle>
<circle clip-path="url(#clip332)" style="fill:#ff814b; stroke:none; fill-opacity:0" cx="1536.24" cy="1447.87" r="2"></circle>
<circle clip-path="url(#clip332)" style="fill:#ff814b; stroke:none; fill-opacity:0" cx="1825.76" cy="933.543" r="2"></circle>
<circle clip-path="url(#clip332)" style="fill:#ff814b; stroke:none; fill-opacity:0" cx="2115.28" cy="676.377" r="2"></circle>
<path clip-path="url(#clip332)" d="M262.363 1447.87 L262.363 1447.87 L493.978 1447.87 L493.978 1447.87 L262.363 1447.87 L262.363 1447.87  Z" fill="#e54213" fill-rule="evenodd" fill-opacity="1"></path>
<polyline clip-path="url(#clip332)" style="stroke:#000000; stroke-linecap:round; stroke-linejoin:round; stroke-width:0; stroke-opacity:1; fill:none" points="262.363,1447.87 262.363,1447.87 493.978,1447.87 262.363,1447.87 "></polyline>
<path clip-path="url(#clip332)" d="M551.881 1447.87 L551.881 1447.87 L783.496 1447.87 L783.496 1447.87 L551.881 1447.87 L551.881 1447.87  Z" fill="#e54213" fill-rule="evenodd" fill-opacity="1"></path>
<polyline clip-path="url(#clip332)" style="stroke:#000000; stroke-linecap:round; stroke-linejoin:round; stroke-width:0; stroke-opacity:1; fill:none" points="551.881,1447.87 551.881,1447.87 783.496,1447.87 551.881,1447.87 "></polyline>
<path clip-path="url(#clip332)" d="M841.4 1447.87 L841.4 1447.87 L1073.01 1447.87 L1073.01 1447.87 L841.4 1447.87 L841.4 1447.87  Z" fill="#e54213" fill-rule="evenodd" fill-opacity="1"></path>
<polyline clip-path="url(#clip332)" style="stroke:#000000; stroke-linecap:round; stroke-linejoin:round; stroke-width:0; stroke-opacity:1; fill:none" points="841.4,1447.87 841.4,1447.87 1073.01,1447.87 841.4,1447.87 "></polyline>
<path clip-path="url(#clip332)" d="M1130.92 933.543 L1130.92 933.543 L1362.53 933.543 L1362.53 933.543 L1130.92 933.543 L1130.92 933.543  Z" fill="#e54213" fill-rule="evenodd" fill-opacity="1"></path>
<polyline clip-path="url(#clip332)" style="stroke:#000000; stroke-linecap:round; stroke-linejoin:round; stroke-width:0; stroke-opacity:1; fill:none" points="1130.92,933.543 1130.92,933.543 1362.53,933.543 1130.92,933.543 "></polyline>
<path clip-path="url(#clip332)" d="M1420.44 1447.87 L1420.44 1447.87 L1652.05 1447.87 L1652.05 1447.87 L1420.44 1447.87 L1420.44 1447.87  Z" fill="#e54213" fill-rule="evenodd" fill-opacity="1"></path>
<polyline clip-path="url(#clip332)" style="stroke:#000000; stroke-linecap:round; stroke-linejoin:round; stroke-width:0; stroke-opacity:1; fill:none" points="1420.44,1447.87 1420.44,1447.87 1652.05,1447.87 1420.44,1447.87 "></polyline>
<path clip-path="url(#clip332)" d="M1709.96 933.543 L1709.96 933.543 L1941.57 933.543 L1941.57 933.543 L1709.96 933.543 L1709.96 933.543  Z" fill="#e54213" fill-rule="evenodd" fill-opacity="1"></path>
<polyline clip-path="url(#clip332)" style="stroke:#000000; stroke-linecap:round; stroke-linejoin:round; stroke-width:0; stroke-opacity:1; fill:none" points="1709.96,933.543 1709.96,933.543 1941.57,933.543 1709.96,933.543 "></polyline>
<path clip-path="url(#clip332)" d="M1999.47 676.377 L1999.47 676.377 L2231.09 676.377 L2231.09 676.377 L1999.47 676.377 L1999.47 676.377  Z" fill="#e54213" fill-rule="evenodd" fill-opacity="1"></path>
<polyline clip-path="url(#clip332)" style="stroke:#000000; stroke-linecap:round; stroke-linejoin:round; stroke-width:0; stroke-opacity:1; fill:none" points="1999.47,676.377 1999.47,676.377 2231.09,676.377 1999.47,676.377 "></polyline>
<circle clip-path="url(#clip332)" style="fill:#e54213; stroke:none; fill-opacity:0" cx="378.17" cy="1447.87" r="2"></circle>
<circle clip-path="url(#clip332)" style="fill:#e54213; stroke:none; fill-opacity:0" cx="667.689" cy="1447.87" r="2"></circle>
<circle clip-path="url(#clip332)" style="fill:#e54213; stroke:none; fill-opacity:0" cx="957.207" cy="1447.87" r="2"></circle>
<circle clip-path="url(#clip332)" style="fill:#e54213; stroke:none; fill-opacity:0" cx="1246.73" cy="933.543" r="2"></circle>
<circle clip-path="url(#clip332)" style="fill:#e54213; stroke:none; fill-opacity:0" cx="1536.24" cy="1447.87" r="2"></circle>
<circle clip-path="url(#clip332)" style="fill:#e54213; stroke:none; fill-opacity:0" cx="1825.76" cy="933.543" r="2"></circle>
<circle clip-path="url(#clip332)" style="fill:#e54213; stroke:none; fill-opacity:0" cx="2115.28" cy="676.377" r="2"></circle>
<path clip-path="url(#clip332)" d="M262.363 1447.87 L262.363 1447.87 L493.978 1447.87 L493.978 1447.87 L262.363 1447.87 L262.363 1447.87  Z" fill="#96ffff" fill-rule="evenodd" fill-opacity="1"></path>
<polyline clip-path="url(#clip332)" style="stroke:#000000; stroke-linecap:round; stroke-linejoin:round; stroke-width:0; stroke-opacity:1; fill:none" points="262.363,1447.87 262.363,1447.87 493.978,1447.87 262.363,1447.87 "></polyline>
<path clip-path="url(#clip332)" d="M551.881 1447.87 L551.881 1447.87 L783.496 1447.87 L783.496 1447.87 L551.881 1447.87 L551.881 1447.87  Z" fill="#96ffff" fill-rule="evenodd" fill-opacity="1"></path>
<polyline clip-path="url(#clip332)" style="stroke:#000000; stroke-linecap:round; stroke-linejoin:round; stroke-width:0; stroke-opacity:1; fill:none" points="551.881,1447.87 551.881,1447.87 783.496,1447.87 551.881,1447.87 "></polyline>
<path clip-path="url(#clip332)" d="M841.4 1447.87 L841.4 1447.87 L1073.01 1447.87 L1073.01 1447.87 L841.4 1447.87 L841.4 1447.87  Z" fill="#96ffff" fill-rule="evenodd" fill-opacity="1"></path>
<polyline clip-path="url(#clip332)" style="stroke:#000000; stroke-linecap:round; stroke-linejoin:round; stroke-width:0; stroke-opacity:1; fill:none" points="841.4,1447.87 841.4,1447.87 1073.01,1447.87 841.4,1447.87 "></polyline>
<path clip-path="url(#clip332)" d="M1130.92 933.543 L1130.92 933.543 L1362.53 933.543 L1362.53 933.543 L1130.92 933.543 L1130.92 933.543  Z" fill="#96ffff" fill-rule="evenodd" fill-opacity="1"></path>
<polyline clip-path="url(#clip332)" style="stroke:#000000; stroke-linecap:round; stroke-linejoin:round; stroke-width:0; stroke-opacity:1; fill:none" points="1130.92,933.543 1130.92,933.543 1362.53,933.543 1362.53,933.543 1130.92,933.543 "></polyline>
<path clip-path="url(#clip332)" d="M1420.44 1447.87 L1420.44 1447.87 L1652.05 1447.87 L1652.05 1447.87 L1420.44 1447.87 L1420.44 1447.87  Z" fill="#96ffff" fill-rule="evenodd" fill-opacity="1"></path>
<polyline clip-path="url(#clip332)" style="stroke:#000000; stroke-linecap:round; stroke-linejoin:round; stroke-width:0; stroke-opacity:1; fill:none" points="1420.44,1447.87 1420.44,1447.87 1652.05,1447.87 1652.05,1447.87 1420.44,1447.87 "></polyline>
<path clip-path="url(#clip332)" d="M1709.96 1447.87 L1709.96 1447.87 L1941.57 1447.87 L1941.57 1447.87 L1709.96 1447.87 L1709.96 1447.87  Z" fill="#96ffff" fill-rule="evenodd" fill-opacity="1"></path>
<polyline clip-path="url(#clip332)" style="stroke:#000000; stroke-linecap:round; stroke-linejoin:round; stroke-width:0; stroke-opacity:1; fill:none" points="1709.96,1447.87 1709.96,1447.87 1941.57,1447.87 1941.57,1447.87 1709.96,1447.87 "></polyline>
<path clip-path="url(#clip332)" d="M1999.47 676.377 L1999.47 676.377 L2231.09 676.377 L2231.09 676.377 L1999.47 676.377 L1999.47 676.377  Z" fill="#96ffff" fill-rule="evenodd" fill-opacity="1"></path>
<polyline clip-path="url(#clip332)" style="stroke:#000000; stroke-linecap:round; stroke-linejoin:round; stroke-width:0; stroke-opacity:1; fill:none" points="1999.47,676.377 1999.47,676.377 2231.09,676.377 1999.47,676.377 "></polyline>
<circle clip-path="url(#clip332)" style="fill:#96ffff; stroke:none; fill-opacity:0" cx="378.17" cy="1447.87" r="2"></circle>
<circle clip-path="url(#clip332)" style="fill:#96ffff; stroke:none; fill-opacity:0" cx="667.689" cy="1447.87" r="2"></circle>
<circle clip-path="url(#clip332)" style="fill:#96ffff; stroke:none; fill-opacity:0" cx="957.207" cy="1447.87" r="2"></circle>
<circle clip-path="url(#clip332)" style="fill:#96ffff; stroke:none; fill-opacity:0" cx="1246.73" cy="933.543" r="2"></circle>
<circle clip-path="url(#clip332)" style="fill:#96ffff; stroke:none; fill-opacity:0" cx="1536.24" cy="1447.87" r="2"></circle>
<circle clip-path="url(#clip332)" style="fill:#96ffff; stroke:none; fill-opacity:0" cx="1825.76" cy="1447.87" r="2"></circle>
<circle clip-path="url(#clip332)" style="fill:#96ffff; stroke:none; fill-opacity:0" cx="2115.28" cy="676.377" r="2"></circle>
<path clip-path="url(#clip332)" d="M262.363 1447.87 L262.363 1447.87 L493.978 1447.87 L493.978 1447.87 L262.363 1447.87 L262.363 1447.87  Z" fill="#00667e" fill-rule="evenodd" fill-opacity="1"></path>
<polyline clip-path="url(#clip332)" style="stroke:#000000; stroke-linecap:round; stroke-linejoin:round; stroke-width:0; stroke-opacity:1; fill:none" points="262.363,1447.87 262.363,1447.87 493.978,1447.87 262.363,1447.87 "></polyline>
<path clip-path="url(#clip332)" d="M551.881 1447.87 L551.881 1447.87 L783.496 1447.87 L783.496 1447.87 L551.881 1447.87 L551.881 1447.87  Z" fill="#00667e" fill-rule="evenodd" fill-opacity="1"></path>
<polyline clip-path="url(#clip332)" style="stroke:#000000; stroke-linecap:round; stroke-linejoin:round; stroke-width:0; stroke-opacity:1; fill:none" points="551.881,1447.87 551.881,1447.87 783.496,1447.87 551.881,1447.87 "></polyline>
<path clip-path="url(#clip332)" d="M841.4 1447.87 L841.4 1447.87 L1073.01 1447.87 L1073.01 1447.87 L841.4 1447.87 L841.4 1447.87  Z" fill="#00667e" fill-rule="evenodd" fill-opacity="1"></path>
<polyline clip-path="url(#clip332)" style="stroke:#000000; stroke-linecap:round; stroke-linejoin:round; stroke-width:0; stroke-opacity:1; fill:none" points="841.4,1447.87 841.4,1447.87 1073.01,1447.87 841.4,1447.87 "></polyline>
<path clip-path="url(#clip332)" d="M1130.92 933.543 L1130.92 933.543 L1362.53 933.543 L1362.53 933.543 L1130.92 933.543 L1130.92 933.543  Z" fill="#00667e" fill-rule="evenodd" fill-opacity="1"></path>
<polyline clip-path="url(#clip332)" style="stroke:#000000; stroke-linecap:round; stroke-linejoin:round; stroke-width:0; stroke-opacity:1; fill:none" points="1130.92,933.543 1130.92,933.543 1362.53,933.543 1130.92,933.543 "></polyline>
<path clip-path="url(#clip332)" d="M1420.44 1447.87 L1420.44 1447.87 L1652.05 1447.87 L1652.05 1447.87 L1420.44 1447.87 L1420.44 1447.87  Z" fill="#00667e" fill-rule="evenodd" fill-opacity="1"></path>
<polyline clip-path="url(#clip332)" style="stroke:#000000; stroke-linecap:round; stroke-linejoin:round; stroke-width:0; stroke-opacity:1; fill:none" points="1420.44,1447.87 1420.44,1447.87 1652.05,1447.87 1420.44,1447.87 "></polyline>
<path clip-path="url(#clip332)" d="M1709.96 933.543 L1709.96 1447.87 L1941.57 1447.87 L1941.57 933.543 L1709.96 933.543 L1709.96 933.543  Z" fill="#00667e" fill-rule="evenodd" fill-opacity="1"></path>
<polyline clip-path="url(#clip332)" style="stroke:#000000; stroke-linecap:round; stroke-linejoin:round; stroke-width:0; stroke-opacity:1; fill:none" points="1709.96,933.543 1709.96,1447.87 1941.57,1447.87 1941.57,933.543 1709.96,933.543 "></polyline>
<path clip-path="url(#clip332)" d="M1999.47 676.377 L1999.47 676.377 L2231.09 676.377 L2231.09 676.377 L1999.47 676.377 L1999.47 676.377  Z" fill="#00667e" fill-rule="evenodd" fill-opacity="1"></path>
<polyline clip-path="url(#clip332)" style="stroke:#000000; stroke-linecap:round; stroke-linejoin:round; stroke-width:0; stroke-opacity:1; fill:none" points="1999.47,676.377 1999.47,676.377 2231.09,676.377 1999.47,676.377 "></polyline>
<circle clip-path="url(#clip332)" style="fill:#00667e; stroke:none; fill-opacity:0" cx="378.17" cy="1447.87" r="2"></circle>
<circle clip-path="url(#clip332)" style="fill:#00667e; stroke:none; fill-opacity:0" cx="667.689" cy="1447.87" r="2"></circle>
<circle clip-path="url(#clip332)" style="fill:#00667e; stroke:none; fill-opacity:0" cx="957.207" cy="1447.87" r="2"></circle>
<circle clip-path="url(#clip332)" style="fill:#00667e; stroke:none; fill-opacity:0" cx="1246.73" cy="933.543" r="2"></circle>
<circle clip-path="url(#clip332)" style="fill:#00667e; stroke:none; fill-opacity:0" cx="1536.24" cy="1447.87" r="2"></circle>
<circle clip-path="url(#clip332)" style="fill:#00667e; stroke:none; fill-opacity:0" cx="1825.76" cy="933.543" r="2"></circle>
<circle clip-path="url(#clip332)" style="fill:#00667e; stroke:none; fill-opacity:0" cx="2115.28" cy="676.377" r="2"></circle>
<path clip-path="url(#clip332)" d="M262.363 1447.87 L262.363 1447.87 L493.978 1447.87 L493.978 1447.87 L262.363 1447.87 L262.363 1447.87  Z" fill="#26c6da" fill-rule="evenodd" fill-opacity="1"></path>
<polyline clip-path="url(#clip332)" style="stroke:#000000; stroke-linecap:round; stroke-linejoin:round; stroke-width:0; stroke-opacity:1; fill:none" points="262.363,1447.87 262.363,1447.87 493.978,1447.87 262.363,1447.87 "></polyline>
<path clip-path="url(#clip332)" d="M551.881 1447.87 L551.881 1447.87 L783.496 1447.87 L783.496 1447.87 L551.881 1447.87 L551.881 1447.87  Z" fill="#26c6da" fill-rule="evenodd" fill-opacity="1"></path>
<polyline clip-path="url(#clip332)" style="stroke:#000000; stroke-linecap:round; stroke-linejoin:round; stroke-width:0; stroke-opacity:1; fill:none" points="551.881,1447.87 551.881,1447.87 783.496,1447.87 551.881,1447.87 "></polyline>
<path clip-path="url(#clip332)" d="M841.4 1447.87 L841.4 1447.87 L1073.01 1447.87 L1073.01 1447.87 L841.4 1447.87 L841.4 1447.87  Z" fill="#26c6da" fill-rule="evenodd" fill-opacity="1"></path>
<polyline clip-path="url(#clip332)" style="stroke:#000000; stroke-linecap:round; stroke-linejoin:round; stroke-width:0; stroke-opacity:1; fill:none" points="841.4,1447.87 841.4,1447.87 1073.01,1447.87 841.4,1447.87 "></polyline>
<path clip-path="url(#clip332)" d="M1130.92 933.543 L1130.92 1447.87 L1362.53 1447.87 L1362.53 933.543 L1130.92 933.543 L1130.92 933.543  Z" fill="#26c6da" fill-rule="evenodd" fill-opacity="1"></path>
<polyline clip-path="url(#clip332)" style="stroke:#000000; stroke-linecap:round; stroke-linejoin:round; stroke-width:0; stroke-opacity:1; fill:none" points="1130.92,933.543 1130.92,1447.87 1362.53,1447.87 1362.53,933.543 1130.92,933.543 "></polyline>
<path clip-path="url(#clip332)" d="M1420.44 1447.87 L1420.44 1447.87 L1652.05 1447.87 L1652.05 1447.87 L1420.44 1447.87 L1420.44 1447.87  Z" fill="#26c6da" fill-rule="evenodd" fill-opacity="1"></path>
<polyline clip-path="url(#clip332)" style="stroke:#000000; stroke-linecap:round; stroke-linejoin:round; stroke-width:0; stroke-opacity:1; fill:none" points="1420.44,1447.87 1420.44,1447.87 1652.05,1447.87 1420.44,1447.87 "></polyline>
<path clip-path="url(#clip332)" d="M1709.96 1447.87 L1709.96 1447.87 L1941.57 1447.87 L1941.57 1447.87 L1709.96 1447.87 L1709.96 1447.87  Z" fill="#26c6da" fill-rule="evenodd" fill-opacity="1"></path>
<polyline clip-path="url(#clip332)" style="stroke:#000000; stroke-linecap:round; stroke-linejoin:round; stroke-width:0; stroke-opacity:1; fill:none" points="1709.96,1447.87 1709.96,1447.87 1941.57,1447.87 1709.96,1447.87 "></polyline>
<path clip-path="url(#clip332)" d="M1999.47 676.377 L1999.47 676.377 L2231.09 676.377 L2231.09 676.377 L1999.47 676.377 L1999.47 676.377  Z" fill="#26c6da" fill-rule="evenodd" fill-opacity="1"></path>
<polyline clip-path="url(#clip332)" style="stroke:#000000; stroke-linecap:round; stroke-linejoin:round; stroke-width:0; stroke-opacity:1; fill:none" points="1999.47,676.377 1999.47,676.377 2231.09,676.377 1999.47,676.377 "></polyline>
<circle clip-path="url(#clip332)" style="fill:#26c6da; stroke:none; fill-opacity:0" cx="378.17" cy="1447.87" r="2"></circle>
<circle clip-path="url(#clip332)" style="fill:#26c6da; stroke:none; fill-opacity:0" cx="667.689" cy="1447.87" r="2"></circle>
<circle clip-path="url(#clip332)" style="fill:#26c6da; stroke:none; fill-opacity:0" cx="957.207" cy="1447.87" r="2"></circle>
<circle clip-path="url(#clip332)" style="fill:#26c6da; stroke:none; fill-opacity:0" cx="1246.73" cy="933.543" r="2"></circle>
<circle clip-path="url(#clip332)" style="fill:#26c6da; stroke:none; fill-opacity:0" cx="1536.24" cy="1447.87" r="2"></circle>
<circle clip-path="url(#clip332)" style="fill:#26c6da; stroke:none; fill-opacity:0" cx="1825.76" cy="1447.87" r="2"></circle>
<circle clip-path="url(#clip332)" style="fill:#26c6da; stroke:none; fill-opacity:0" cx="2115.28" cy="676.377" r="2"></circle>
<path clip-path="url(#clip332)" d="M262.363 1447.87 L262.363 1447.87 L493.978 1447.87 L493.978 1447.87 L262.363 1447.87 L262.363 1447.87  Z" fill="#ffeb3b" fill-rule="evenodd" fill-opacity="1"></path>
<polyline clip-path="url(#clip332)" style="stroke:#000000; stroke-linecap:round; stroke-linejoin:round; stroke-width:0; stroke-opacity:1; fill:none" points="262.363,1447.87 262.363,1447.87 493.978,1447.87 262.363,1447.87 "></polyline>
<path clip-path="url(#clip332)" d="M551.881 1447.87 L551.881 1447.87 L783.496 1447.87 L783.496 1447.87 L551.881 1447.87 L551.881 1447.87  Z" fill="#ffeb3b" fill-rule="evenodd" fill-opacity="1"></path>
<polyline clip-path="url(#clip332)" style="stroke:#000000; stroke-linecap:round; stroke-linejoin:round; stroke-width:0; stroke-opacity:1; fill:none" points="551.881,1447.87 551.881,1447.87 783.496,1447.87 551.881,1447.87 "></polyline>
<path clip-path="url(#clip332)" d="M841.4 1447.87 L841.4 1447.87 L1073.01 1447.87 L1073.01 1447.87 L841.4 1447.87 L841.4 1447.87  Z" fill="#ffeb3b" fill-rule="evenodd" fill-opacity="1"></path>
<polyline clip-path="url(#clip332)" style="stroke:#000000; stroke-linecap:round; stroke-linejoin:round; stroke-width:0; stroke-opacity:1; fill:none" points="841.4,1447.87 841.4,1447.87 1073.01,1447.87 841.4,1447.87 "></polyline>
<path clip-path="url(#clip332)" d="M1130.92 1447.87 L1130.92 1447.87 L1362.53 1447.87 L1362.53 1447.87 L1130.92 1447.87 L1130.92 1447.87  Z" fill="#ffeb3b" fill-rule="evenodd" fill-opacity="1"></path>
<polyline clip-path="url(#clip332)" style="stroke:#000000; stroke-linecap:round; stroke-linejoin:round; stroke-width:0; stroke-opacity:1; fill:none" points="1130.92,1447.87 1130.92,1447.87 1362.53,1447.87 1130.92,1447.87 "></polyline>
<path clip-path="url(#clip332)" d="M1420.44 1447.87 L1420.44 1447.87 L1652.05 1447.87 L1652.05 1447.87 L1420.44 1447.87 L1420.44 1447.87  Z" fill="#ffeb3b" fill-rule="evenodd" fill-opacity="1"></path>
<polyline clip-path="url(#clip332)" style="stroke:#000000; stroke-linecap:round; stroke-linejoin:round; stroke-width:0; stroke-opacity:1; fill:none" points="1420.44,1447.87 1420.44,1447.87 1652.05,1447.87 1420.44,1447.87 "></polyline>
<path clip-path="url(#clip332)" d="M1709.96 1447.87 L1709.96 1447.87 L1941.57 1447.87 L1941.57 1447.87 L1709.96 1447.87 L1709.96 1447.87  Z" fill="#ffeb3b" fill-rule="evenodd" fill-opacity="1"></path>
<polyline clip-path="url(#clip332)" style="stroke:#000000; stroke-linecap:round; stroke-linejoin:round; stroke-width:0; stroke-opacity:1; fill:none" points="1709.96,1447.87 1709.96,1447.87 1941.57,1447.87 1709.96,1447.87 "></polyline>
<path clip-path="url(#clip332)" d="M1999.47 676.377 L1999.47 1447.87 L2231.09 1447.87 L2231.09 676.377 L1999.47 676.377 L1999.47 676.377  Z" fill="#ffeb3b" fill-rule="evenodd" fill-opacity="1"></path>
<polyline clip-path="url(#clip332)" style="stroke:#000000; stroke-linecap:round; stroke-linejoin:round; stroke-width:0; stroke-opacity:1; fill:none" points="1999.47,676.377 1999.47,1447.87 2231.09,1447.87 2231.09,676.377 1999.47,676.377 "></polyline>
<circle clip-path="url(#clip332)" style="fill:#ffeb3b; stroke:none; fill-opacity:0" cx="378.17" cy="1447.87" r="2"></circle>
<circle clip-path="url(#clip332)" style="fill:#ffeb3b; stroke:none; fill-opacity:0" cx="667.689" cy="1447.87" r="2"></circle>
<circle clip-path="url(#clip332)" style="fill:#ffeb3b; stroke:none; fill-opacity:0" cx="957.207" cy="1447.87" r="2"></circle>
<circle clip-path="url(#clip332)" style="fill:#ffeb3b; stroke:none; fill-opacity:0" cx="1246.73" cy="1447.87" r="2"></circle>
<circle clip-path="url(#clip332)" style="fill:#ffeb3b; stroke:none; fill-opacity:0" cx="1536.24" cy="1447.87" r="2"></circle>
<circle clip-path="url(#clip332)" style="fill:#ffeb3b; stroke:none; fill-opacity:0" cx="1825.76" cy="1447.87" r="2"></circle>
<circle clip-path="url(#clip332)" style="fill:#ffeb3b; stroke:none; fill-opacity:0" cx="2115.28" cy="676.377" r="2"></circle>
</svg>